<svg width="172" height="38" viewBox="0 0 172 38" fill="none" xmlns="http://www.w3.org/2000/svg">
<path fill-rule="evenodd" clip-rule="evenodd" d="M0.802002 18.7346V37.0953H1.912H3.021L3.032 20.7936L3.04201 4.49191L3.16499 4.80441L3.287 5.11691L3.427 5.47531L3.56799 5.8336L4.06599 7.07731L4.564 8.3211L4.799 8.91131L5.033 9.5015L5.133 9.75451L5.233 10.0075L5.509 10.7031L5.784 11.3987L6.27499 12.6214L6.76601 13.844L6.983 14.3921L7.19901 14.9402L7.601 15.952L8.004 16.9639L8.418 17.9968L8.832 19.0297L9.02299 19.5145L9.213 19.9994L9.313 20.2523L9.41299 20.5053L9.911 21.749L10.41 22.9927L10.644 23.583L10.878 24.1732L11.129 24.8056L11.38 25.438L12.004 26.9979L12.627 28.5579L12.835 29.0849L13.044 29.6119L13.581 30.961L14.119 32.3101L14.414 33.0479L14.709 33.7857L15.304 35.2824L15.899 36.7791L15.967 36.9378L16.036 37.0965L17.278 37.0854L18.521 37.0742L18.707 36.5893L18.893 36.1045L18.976 35.8937L19.059 35.6829L19.469 34.5867L19.878 33.4906L19.938 33.343L19.999 33.1955L20.409 32.1204L20.819 31.0453L21.069 30.3918L21.32 29.7383L21.669 28.8108L22.019 27.8833L22.122 27.6093L22.225 27.3352L22.305 27.1244L22.386 26.9136L22.775 25.9018L23.164 24.8899L23.434 24.1732L23.705 23.4565L23.984 22.7187L24.263 21.9809L24.548 21.2431L24.833 20.5053L24.951 20.1891L25.069 19.8729L25.39 19.0297L25.711 18.1865L26.04 17.3222L26.369 16.4579L26.898 15.0667L27.426 13.6754L27.53 13.4013L27.635 13.1273L27.763 12.79L27.892 12.4527L28.167 11.736L28.442 11.0193L28.89 9.8388L29.338 8.6583L29.562 8.06811L29.785 7.47791L29.881 7.22491L29.976 6.97191L30.317 6.08661L30.658 5.2012L30.759 4.92721L30.86 4.6531L30.871 20.8744L30.882 37.0957L34.967 37.0849L39.052 37.0742L39.063 30.1705L39.074 23.2668L42.732 23.2671L46.391 23.2674L46.923 24.2051L47.455 25.1429L48.056 26.218L48.657 27.2931L49.312 28.4525L49.966 29.6119L50.797 31.0875L51.627 32.5631L51.772 32.8085L51.916 33.0539V33.0709V33.0879L52.699 34.4697L53.482 35.8515L53.623 36.1045L53.764 36.3575L53.973 36.7264L54.183 37.0953H58.684H63.185L63.167 37.0636L63.148 37.032L62.957 36.6947L62.766 36.3575L62.648 36.1467L62.53 35.9359L62.102 35.177L61.675 34.4181L61.461 34.0597L61.248 33.7014L60.556 32.4787L59.864 31.2561L59.342 30.3497L58.819 29.4432L58.574 29.0005L58.328 28.5579L58.232 28.3892L58.136 28.2206L57.613 27.3141L57.091 26.4077L56.899 26.0704L56.707 25.7331L56.589 25.5223L56.47 25.3115L56.244 24.911L56.018 24.5105L55.616 23.8149L55.213 23.1192L53.001 23.1083L50.789 23.0974L50.747 23.0556L50.704 23.0138H50.822H50.94L51.375 22.9255L51.809 22.8371L52.364 22.696L52.919 22.5549L53.362 22.4022L53.806 22.2495L54.173 22.1001L54.54 21.9508L55.052 21.6973L55.564 21.4437L55.905 21.2506L56.247 21.0576L56.652 20.7865L57.057 20.5154L57.501 20.173L57.945 19.8307L58.467 19.3355L58.989 18.8402L59.287 18.4923L59.585 18.1443L59.86 17.7649L60.134 17.3855L60.287 17.1325L60.44 16.8795L60.621 16.5423L60.802 16.205L60.928 15.9099L61.053 15.6147L61.22 15.1341L61.387 14.6535L61.511 14.0801L61.636 13.5067L61.69 13.0219L61.744 12.5371L61.741 11.7782L61.738 11.0193L61.669 10.4605L61.6 9.90161L61.515 9.53291L61.429 9.1643L61.317 8.7852L61.205 8.40611L61.016 7.94201L60.827 7.47791L60.592 7.0375L60.358 6.59701L60.099 6.21531L59.841 5.8336L59.518 5.4377L59.194 5.04181L58.764 4.61561L58.333 4.18941L57.845 3.7856L57.356 3.38181L57.03 3.14441L56.704 2.9069L56.264 2.62501L55.825 2.34311L55.182 2.01401L54.54 1.6849L53.964 1.45711L53.388 1.2292L52.812 1.05921L52.236 0.889206L51.724 0.779505L51.212 0.669806L50.53 0.564005L49.847 0.458206L48.994 0.414406L48.14 0.370605L39.209 0.382805L30.277 0.395006L30.087 0.879807L29.896 1.36471L29.799 1.61761L29.701 1.87061L29.266 2.98781L28.83 4.1051L28.769 4.25261L28.708 4.40021L28.533 4.8639L28.358 5.32771L27.511 7.49891L26.664 9.67021L26.174 10.935L25.683 12.1998L25.211 13.4224L24.738 14.6451L24.656 14.8559L24.573 15.0667L23.785 17.0903L22.998 19.114L22.475 20.4631L21.952 21.8123L21.837 22.1074L21.721 22.4025L21.483 23.0138L21.244 23.6251L21.056 24.11L20.867 24.5948L20.448 25.6815L20.03 26.768L19.998 26.7355L19.967 26.7028L19.745 26.1337L19.523 25.5645L18.991 24.2365L18.458 22.9084L18.182 22.2128L17.905 21.5171L17.798 21.2431L17.691 20.9691L17.464 20.3999L17.237 19.8307L16.747 18.6081L16.258 17.3855L15.998 16.732L15.739 16.0785L15.464 15.3829L15.189 14.6872L14.605 13.2327L14.022 11.7782L13.915 11.5041L13.808 11.2301L13.665 10.8717L13.523 10.5134L13.025 9.2697L12.527 8.02591L12.294 7.43571L12.062 6.84551L11.959 6.5925L11.857 6.33951L11.659 5.8336L11.461 5.32771L10.93 3.9997L10.399 2.67161L10.317 2.4819L10.234 2.2922L9.908 1.44901L9.58299 0.605806L9.522 0.489805L9.461 0.373905H5.132H0.802002V18.7346ZM46.214 2.3076L46.72 2.4008L47.117 2.52651L47.514 2.6522L48.008 2.8994L48.501 3.1466L48.841 3.38841L49.18 3.63021L49.504 3.92441L49.827 4.21881L50.075 4.5202L50.322 4.82181L50.511 5.0958L50.699 5.36991L50.833 5.5883L50.968 5.80671L51.181 6.2418L51.394 6.67681L51.527 7.038L51.66 7.39921L51.769 7.75471L51.877 8.1103L52 8.67941L52.122 9.24861L52.2 9.81771L52.279 10.3869L52.278 11.8203L52.276 13.2538L52.201 13.8009L52.126 14.348L52.002 14.9392L51.878 15.5304L51.753 15.9309L51.627 16.3315L51.471 16.732L51.314 17.1325L51.099 17.5541L50.883 17.9757L50.65 18.3293L50.417 18.683L50.178 18.9828L49.938 19.2827L49.594 19.6214L49.25 19.9602L48.844 20.2384L48.439 20.5167L48.018 20.7304L47.598 20.9441L47.208 21.0719L46.818 21.1996L46.391 21.294L45.964 21.3883L42.519 21.4019L39.074 21.4155V11.7976V2.1797L42.391 2.19711L45.708 2.21451L46.214 2.3076ZM80.054 9.47941L79.585 9.51391L79.094 9.58521L78.604 9.65661L78.174 9.75651L77.745 9.85641L77.278 10.0074L76.812 10.1583L76.331 10.3692L75.85 10.58L75.484 10.7877L75.119 10.9954L74.706 11.2871L74.292 11.5788L73.888 11.9346L73.483 12.2904L73.171 12.6245L72.858 12.9587L72.616 13.2733L72.375 13.5879L72.148 13.9267L71.921 14.2656L71.69 14.7317L71.46 15.1977L71.306 15.617L71.152 16.0363L71.025 16.5633L70.898 17.0903L70.837 17.6595L70.775 18.2287L70.776 18.7978V19.367L70.836 19.9361L70.895 20.5053L71.006 20.9901L71.117 21.475L71.227 21.8123L71.337 22.1495L71.481 22.4955L71.626 22.8415L71.844 23.229L72.061 23.6165L72.172 23.7895L72.282 23.9624L72.584 24.3622L72.887 24.762L73.42 25.2921L73.953 25.8222L74.316 26.0991L74.678 26.3759L75.041 26.6088L75.404 26.8418L75.852 27.074L76.3 27.3061L76.798 27.501L77.295 27.6959L77.865 27.8415L78.434 27.987L79.031 28.0797L79.628 28.1724L80.63 28.1743L81.633 28.1762L82.124 28.0992L82.614 28.0223L82.956 27.9404L83.297 27.8585L83.638 27.75L83.98 27.6414L84.493 27.3956L85.006 27.1498L85.351 26.8963L85.695 26.6429L85.934 26.3883L86.172 26.1337H86.199H86.226L87.27 27.0841L88.314 28.0345L88.621 28.0221L88.929 28.0098V24.0889V20.168H86.902H84.876L84.854 22.5922L84.833 25.0164L84.718 25.281L84.603 25.5456L84.413 25.8291L84.222 26.1126L83.973 26.348L83.724 26.5834L83.465 26.7574L83.206 26.9314L82.889 27.0805L82.571 27.2295L82.166 27.3308L81.761 27.432L81.276 27.4824L80.791 27.5328L80.444 27.5037L80.097 27.4746L79.756 27.4168L79.414 27.359L79.099 27.2528L78.784 27.1466L78.467 26.9775L78.149 26.8083L77.907 26.6234L77.665 26.4384L77.381 26.1622L77.097 25.8859L76.864 25.5979L76.632 25.3098L76.426 24.9945L76.221 24.6791L75.954 24.1311L75.688 23.583L75.519 23.0771L75.35 22.5711L75.236 22.0683L75.122 21.5655L75.063 21.1188L75.003 20.6722L74.954 19.9353L74.905 19.1983L74.933 18.587L74.962 17.9757L75.025 17.3855L75.088 16.7952L75.196 16.2682L75.305 15.7412L75.408 15.3829L75.511 15.0245L75.702 14.5397L75.893 14.0548L76.122 13.6472L76.35 13.2396L76.597 12.9009L76.844 12.5622L77.233 12.1814L77.622 11.8006L77.857 11.6287L78.092 11.4569L78.457 11.2502L78.822 11.0435L79.21 10.8954L79.598 10.7474L79.911 10.6638L80.225 10.5801L80.63 10.5072L81.036 10.4342L81.953 10.4331L82.87 10.432L83.297 10.5085L83.724 10.585L84.129 10.7121L84.534 10.8392L84.876 11.0065L85.217 11.1739L85.58 11.4128L85.942 11.6517L86.23 11.9346L86.518 12.2174L86.704 12.5037L86.89 12.79L87.001 13.0677L87.113 13.3454L87.178 13.7161L87.244 14.0869V14.2501V14.4132H87.634H88.024L87.999 14.0232L87.972 13.6332L87.864 13.2624L87.755 12.8916L87.61 12.6022L87.465 12.3129L87.284 12.0488L87.102 11.7847L86.779 11.4502L86.456 11.1158L86.092 10.8456L85.729 10.5754L85.174 10.3072L84.62 10.0389L84.331 9.9465L84.041 9.85401L83.605 9.74891L83.169 9.64371L82.572 9.56461L81.974 9.48551L81.249 9.4652L80.524 9.44501L80.054 9.47941ZM120.416 9.4629L120.203 9.4783L119.755 9.5249L119.307 9.57131L118.795 9.67171L118.283 9.7721L117.814 9.91691L117.345 10.0617L116.961 10.2164L116.577 10.371L116.171 10.5834L115.766 10.7957L115.419 11.0227L115.072 11.2497L114.715 11.5331L114.358 11.8165L113.888 12.2822L113.418 12.7479L113.052 13.2327L112.686 13.7175L112.48 14.0548L112.274 14.3921L112.096 14.7715L111.917 15.151L111.745 15.6358L111.573 16.1207L111.463 16.6073L111.353 17.0939L111.283 17.7456L111.213 18.3973L111.237 19.114L111.262 19.8307L111.325 20.2523L111.388 20.6739L111.496 21.1166L111.604 21.5593L111.686 21.8123L111.767 22.0652L111.924 22.4447L112.081 22.8241L112.293 23.2193L112.506 23.6145L112.714 23.9179L112.921 24.2213L113.174 24.5345L113.428 24.8478L113.804 25.2417L114.181 25.6356L114.611 25.9844L115.041 26.3332L115.467 26.6086L115.894 26.8839L116.235 27.0532L116.577 27.2224L116.833 27.3363L117.089 27.4502L117.579 27.6158L118.07 27.7815L118.537 27.8856L119.004 27.9898L119.539 28.0613L120.075 28.1329L121.056 28.1313L122.038 28.1298L122.589 28.0579L123.14 27.9861L123.677 27.8564L124.214 27.7267L124.668 27.5667L125.122 27.4067L125.487 27.2377L125.852 27.0688L126.27 26.826L126.688 26.5831L127.016 26.3462L127.343 26.1093L127.722 25.7834L128.1 25.4575L128.397 25.1363L128.694 24.8152L128.92 24.5363L129.147 24.2575L129.398 23.8855L129.65 23.5135L129.904 23.0212L130.158 22.529L130.312 22.089L130.467 21.649L130.572 21.2458L130.677 20.8426L130.768 20.2523L130.86 19.6621V18.7978L130.859 17.9335L130.749 17.2535L130.639 16.5736L130.527 16.1785L130.415 15.7834L130.263 15.3829L130.112 14.9823L129.921 14.6051L129.73 14.2279L129.463 13.8252L129.197 13.4224L128.933 13.0851L128.67 12.7479L128.319 12.3952L127.968 12.0426L127.67 11.7794L127.371 11.5163L127.017 11.2588L126.664 11.0012L126.249 10.7655L125.835 10.5297L125.728 10.4729L125.622 10.416L125.238 10.2586L124.854 10.1013L124.491 9.97951L124.128 9.85771L123.595 9.73511L123.062 9.6125L122.544 9.54761L122.025 9.48261L121.328 9.46501L120.63 9.4474L120.416 9.4629ZM92.886 9.6975L92.833 9.75031V18.8239V27.8975L92.859 27.9642L92.885 28.0309H94.902H96.92L96.946 27.9642L96.971 27.8975V24.5066V21.1157L98.788 21.1267L100.604 21.1377L100.757 21.4117L100.909 21.6858L101.579 22.8663L102.248 24.0467L102.4 24.3208L102.551 24.5948L103.159 25.6699L103.767 26.745L104.129 27.3879L104.491 28.0309H106.726H108.961V27.9874V27.944L108.292 26.7753L107.623 25.6067L107.242 24.9321L106.861 24.2575L106.208 23.1192L105.556 21.9809L105.279 21.4961L105.003 21.0112L103.92 20.989L102.838 20.9669L102.953 20.9574L103.067 20.948L103.354 20.8822L103.641 20.8164L104.09 20.6683L104.538 20.5201L104.908 20.3364L105.278 20.1526L105.743 19.8464L106.209 19.5402L106.683 19.0741L107.156 18.6081L107.382 18.2737L107.608 17.9393L107.79 17.5549L107.972 17.1704L108.081 16.772L108.19 16.3736L108.24 15.8782L108.29 15.3829L108.24 14.8875L108.19 14.3921L108.081 13.9916L107.972 13.5911L107.786 13.2116L107.6 12.8322L107.43 12.5792L107.26 12.3263L107.009 12.04L106.758 11.7536L106.419 11.4587L106.081 11.1638L105.675 10.8955L105.27 10.6273L104.954 10.4714L104.637 10.3156L104.255 10.1715L103.873 10.0274L103.462 9.9251L103.051 9.82281L102.582 9.74961L102.113 9.6764L97.526 9.6606L92.94 9.6447L92.886 9.6975ZM134.23 15.7092L134.244 21.7701L134.358 22.276L134.473 22.7819L134.583 23.1192L134.693 23.4565L134.922 23.9238L135.152 24.3912L135.418 24.7881L135.684 25.1851L136.264 25.7566L136.843 26.3282L137.334 26.6482L137.824 26.9683L138.08 27.1018L138.336 27.2353L138.656 27.3746L138.976 27.5139L139.382 27.6473L139.787 27.7808L140.256 27.8865L140.725 27.9922L141.301 28.0533L141.877 28.1143L142.624 28.1147L143.371 28.1152L143.908 28.0531L144.445 27.991L144.825 27.9037L145.205 27.8164L145.461 27.7381L145.717 27.6598L146.041 27.5324L146.364 27.405L146.66 27.2479L146.955 27.0908L147.269 26.8815L147.584 26.6723L147.918 26.3812L148.252 26.09L148.54 25.7324L148.828 25.3747L148.958 25.4917L149.088 25.6087L149.388 25.8817L149.688 26.1547L149.9 26.3445L150.112 26.5342L150.56 26.9347L151.008 27.3352L151.051 27.381L151.093 27.4267L151.422 27.7288L151.75 28.0309H152.073H152.395L152.384 18.8505L152.373 9.67021L150.364 9.6592L148.355 9.64831L148.326 10.3258L148.298 11.0034L148.299 17.9203L148.3 24.8372L148.06 25.127L147.82 25.4168L147.579 25.6213L147.339 25.8259L147.077 26.0012L146.815 26.1765L146.416 26.3629L146.016 26.5493L145.632 26.6546L145.248 26.7599L144.971 26.8136L144.693 26.8673L143.84 26.8653L142.987 26.8632L142.54 26.768L142.093 26.6728L141.729 26.5473L141.365 26.4218L141.023 26.2402L140.68 26.0587L140.468 25.9175L140.256 25.7764L139.893 25.4174L139.529 25.0586L139.279 24.6835L139.029 24.3085L138.87 23.9668L138.711 23.6251L138.597 23.243L138.484 22.861L138.413 22.5263L138.342 22.1917L138.318 15.9309L138.294 9.67021L136.255 9.6592L134.216 9.64831L134.23 15.7092ZM156.426 9.69991L156.405 9.75451L156.416 18.8821L156.427 28.0098H158.453H160.48L160.491 24.5632L160.502 21.1166L162.837 21.1165L165.173 21.1163L165.664 21.0712L166.154 21.0261L166.666 20.9256L167.178 20.8252L167.519 20.7152L167.86 20.6052L168.159 20.4768L168.458 20.3486L168.838 20.1355L169.218 19.9225L169.5 19.7116L169.781 19.5007L170.092 19.2285L170.403 18.9563L170.65 18.6557L170.897 18.3551L171.047 18.1228L171.196 17.8904L171.328 17.6168L171.46 17.3433L171.571 17.007L171.682 16.6706L171.745 16.2903L171.807 15.9099V15.3829V14.8559L171.745 14.4754L171.682 14.0951L171.571 13.7587L171.46 13.4224L171.329 13.1484L171.197 12.8743L170.982 12.5581L170.767 12.2419L170.381 11.8473L169.994 11.4527L169.738 11.2522L169.482 11.0518L169.162 10.8407L168.842 10.6296L168.526 10.4726L168.21 10.3156L167.828 10.1715L167.446 10.0274L167.035 9.92521L166.624 9.82311L166.176 9.7488L165.728 9.6746L161.087 9.65991L156.447 9.64531L156.426 9.69991ZM122.23 10.3846L122.635 10.4952L123.019 10.6829L123.403 10.8706L123.682 11.0784L123.96 11.2863L124.311 11.6474L124.662 12.0085L124.967 12.4625L125.271 12.9165L125.516 13.4224L125.761 13.9283L125.912 14.371L126.063 14.8137L126.15 15.151L126.236 15.4883L126.342 16.0574L126.447 16.6266L126.501 17.1957L126.556 17.7649V18.7978V19.8307L126.503 20.3788L126.451 20.9269L126.346 21.52L126.241 22.1131L126.095 22.6372L125.949 23.1614L125.8 23.5431L125.652 23.9248L125.438 24.3459L125.225 24.767L124.967 25.1447L124.709 25.5223L124.461 25.8009L124.214 26.0794L123.961 26.2973L123.707 26.5152L123.478 26.6656L123.249 26.816L122.89 26.9821L122.531 27.1482L122.199 27.233L121.867 27.3179L121.448 27.3547L121.029 27.3915L120.631 27.3543L120.232 27.3171L119.94 27.246L119.648 27.1749L119.274 27.0169L118.9 26.8589L118.593 26.6544L118.287 26.4499L117.92 26.1054L117.554 25.7609L117.3 25.4183L117.046 25.0757L116.839 24.7088L116.632 24.3419L116.469 23.9788L116.306 23.6158L116.175 23.2283L116.043 22.8408L115.919 22.3476L115.794 21.8544L115.704 21.2987L115.615 20.743L115.574 20.2236L115.533 19.7043L115.532 18.8145L115.531 17.9247L115.576 17.381L115.62 16.8374L115.705 16.3104L115.79 15.7834L115.901 15.3196L116.013 14.8559L116.174 14.3921L116.335 13.9283L116.406 13.7597L116.478 13.5911L116.687 13.1806L116.897 12.7702L117.15 12.4006L117.403 12.0311L117.706 11.706L118.01 11.3809L118.36 11.1194L118.71 10.8579L119.136 10.6588L119.563 10.4598L119.904 10.373L120.246 10.2862L120.374 10.2664L120.502 10.2467L121.163 10.2603L121.824 10.274L122.23 10.3846ZM100.875 10.7417L101.174 10.8381L101.457 10.9839L101.74 11.1297L102.015 11.3543L102.291 11.5788L102.511 11.8682L102.731 12.1576L102.901 12.4792L103.072 12.8007L103.218 13.2381L103.365 13.6754L103.442 14.097L103.519 14.5186V15.3829V16.2471L103.441 16.6644L103.363 17.0817L103.265 17.4048L103.167 17.7278L103.069 17.9571L102.97 18.1865L102.759 18.5418L102.548 18.8972L102.224 19.2203L101.899 19.5435L101.601 19.7163L101.302 19.8891L100.961 20.007L100.619 20.1249L98.795 20.1388L96.971 20.1526V15.3832V10.6138L98.774 10.6296L100.577 10.6453L100.875 10.7417ZM164.448 10.7402L164.746 10.8379L165.026 10.9823L165.306 11.1266L165.582 11.3555L165.857 11.5843L166.077 11.871L166.298 12.1576L166.472 12.4949L166.647 12.8322L166.77 13.2116L166.894 13.5911L166.961 13.9144L167.028 14.2378L167.075 14.7576L167.122 15.2775L167.093 15.7623L167.064 16.2471L166.982 16.6991L166.901 17.1511L166.79 17.5001L166.679 17.8492L166.513 18.1943L166.347 18.5394L166.095 18.8689L165.844 19.1983L165.625 19.3804L165.407 19.5625L165.141 19.7222L164.874 19.8818L164.533 20.0031L164.192 20.1244L162.347 20.1388L160.501 20.1533V15.3835V10.6138L162.325 10.6282L164.149 10.6426L164.448 10.7402Z" fill="#393737"/>
</svg>
