<svg width="123" height="38" viewBox="0 0 123 38" fill="none" xmlns="http://www.w3.org/2000/svg">
<path fill-rule="evenodd" clip-rule="evenodd" d="M0.0962 0.468506L0 0.563906V18.8303V37.0965H5.3135H10.6271L10.6637 23.3256L10.7003 9.5548H18.3844H26.0686L26.1052 23.3256L26.1418 37.0965H31.4559H36.77L36.7336 18.7709L36.6971 0.445305L18.4448 0.409206L0.1926 0.373005L0.0962 0.468506ZM41.6522 18.7353V37.0965H46.3666H51.0809L51.6794 36.3493L52.2777 35.602L52.3869 35.4588L52.4962 35.3155L53.358 34.2498L54.2197 33.1842L54.324 33.0408L54.4283 32.8977L55.1894 31.9725L55.9505 31.0473L56.1623 30.7387L56.3742 30.4301L57.7465 28.746L59.1189 27.0619L60.4037 25.4486L61.6884 23.8352L62.4066 22.9485L63.1247 22.0616L63.5763 21.5016L64.028 20.9415L65.446 19.1624L66.8641 17.3832L67.3556 16.7592L67.8472 16.1352L67.9549 16.4033L68.0625 16.6715L68.0657 26.8484L68.0687 37.0254H73.3144H78.56L78.5745 18.7353L78.589 0.445305L73.9448 0.410906L69.3007 0.376307L69.1522 0.482105L69.0037 0.587706L68.4971 1.2282L67.9905 1.8687L66.5701 3.64791L65.1494 5.42711L63.9934 6.86381L62.8374 8.3005L62.454 8.78691L62.0705 9.27321L61.1613 10.4233L60.2521 11.5734L59.0645 13.0549L57.877 14.5365L57.4127 15.14L56.9487 15.7435L56.5441 16.2075L56.1395 16.6715L55.539 17.4543L54.9386 18.2372L54.8633 18.3083L54.7879 18.3795L53.7155 19.7317L52.6431 21.0839L52.4619 21.2719L52.2808 21.4601V10.917V0.374207H46.9665H41.6522V18.7353ZM83.5896 0.479206L83.5874 0.587706L83.5885 18.8065L83.5893 37.0254H88.8689H94.148L94.22 29.7878L94.292 22.5502L97.17 25.4466L100.048 28.3429L103.075 31.4031L106.103 34.4633L107.396 35.7799L108.688 37.0965H115.745H122.802V36.9898V36.883L116.303 30.3698L109.804 23.8564L106.967 21.0449L104.129 18.2333L104.72 17.5237L105.311 16.8138L106.008 16.0206L106.706 15.2274L107.465 14.2971L108.224 13.3666L109.85 11.4608L111.475 9.5548L112.004 8.92761L112.533 8.30071L112.681 8.1448L112.829 7.98911L114.022 6.56571L115.216 5.1424L115.813 4.4367L116.411 3.731L116.914 3.14161L117.416 2.55231L118.063 1.79471L118.709 1.03721L118.884 0.812407L119.059 0.587706L119.063 0.480906L119.068 0.374207H112.895H106.723L106.468 0.765606L106.213 1.15701L105.985 1.3705L105.757 1.58401L104.164 3.50551L102.57 5.42711L101.686 6.4946L100.802 7.56211L100.563 7.84791L100.324 8.1335L99.247 9.41681L98.17 10.7L97.667 11.3183L97.165 11.9367L97.019 12.0979L96.872 12.2591L95.582 13.8077L94.292 15.3565L94.22 7.9008L94.148 0.445305L88.8701 0.408007L83.5918 0.370605L83.5896 0.479206Z" fill="#393737"/>
</svg>
