<svg width="51" height="75" viewBox="0 0 51 75" fill="none" xmlns="http://www.w3.org/2000/svg">
<path fill-rule="evenodd" clip-rule="evenodd" d="M19.9301 11.029L19.79 21.325L18.27 24.4697C16.3 28.5318 12.78 32.123 8.91003 33.9981C5.97003 35.4248 5.93005 35.4697 5.93005 37.3004C5.93005 39.0044 6.01995 39.1329 6.94995 38.8635C11.61 37.5268 17.74 32.7996 20.51 28.407L21.99 26.0642L23.3101 28.7662C24.0301 30.2525 24.8 31.6502 25.02 31.8725C25.24 32.0994 26.08 30.9121 26.95 29.1613L28.5 26.0462L29.98 28.3983C32.8 32.8699 38.79 37.4903 43.54 38.8616C44.48 39.132 44.5699 39.0035 44.5699 37.3406C44.5699 35.5612 44.5101 35.4932 41.5601 34.017C37.8401 32.1572 33.8699 28.2065 32.2 24.7165C30.52 21.1859 30.03 17.5393 30.03 8.475L30.02 0.733398H28.25H26.47L26.28 11.2481C26.18 17.0397 25.88 22.2813 25.62 22.9172C25.18 23.9992 25.11 23.9174 24.63 21.6236C24.34 20.2592 24.11 15.093 24.11 9.9544V0.733398H22.09H20.0699L19.9301 11.029ZM14.5699 15.0449C14.5699 20.2523 12.05 25.1967 8.14001 27.6666C6.05001 28.9899 5.93005 29.172 5.93005 31.0641C5.93005 33.0215 5.95998 33.0538 7.09998 32.6106C8.97998 31.8831 11.98 29.6194 13.85 27.5192C16.62 24.4059 17.9 21.0551 18.12 16.3321L18.3199 12.288H16.4399H14.5699V15.0449ZM32.39 16.5632C32.55 20.2056 32.79 21.2488 33.99 23.6114C35.86 27.2881 40.07 31.3243 43.37 32.6009C44.55 33.0552 44.5701 33.0293 44.5601 31.1103C44.5501 29.281 44.41 29.0624 42.29 27.6523C38.16 24.9088 35.9301 20.4626 35.9301 14.977V12.288H34.0601H32.1899L32.39 16.5632ZM18.65 33.9625C15.66 37.067 10.62 40.1044 7.39001 40.7621C6.05001 41.0348 5.93005 41.2035 5.93005 42.8498C5.93005 44.4036 6.06995 44.6384 6.94995 44.625C8.56995 44.5996 14.16 42.1944 16.87 40.3582C18.23 39.4375 20.32 37.665 21.53 36.4194L23.71 34.1552L22.73 32.465C22.19 31.5356 21.7201 30.803 21.6801 30.8367C21.6401 30.8709 20.28 32.2774 18.65 33.9625ZM27.73 32.4322C26.84 33.8904 26.8301 34.0281 27.5601 35.1558C28.9401 37.3073 35.2199 41.7013 39.0699 43.208C44.0199 45.1501 44.5699 45.1145 44.5699 42.8498C44.5699 41.2035 44.45 41.0348 43.11 40.7621C39.96 40.1224 34.82 37.0508 31.73 33.9597L28.66 30.8964L27.73 32.4322ZM47.75 51.7708C47.75 52.1993 48.1399 52.4978 48.7 52.4978C49.7999 52.4978 49.65 51.4177 48.51 51.1931C48.06 51.1044 47.75 51.3401 47.75 51.7708ZM0.930054 57.5495C0.930054 61.3782 1.04999 62.2037 1.60999 62.2037C2.12999 62.2037 2.29997 61.6074 2.33997 59.7772C2.36997 57.4806 2.40005 57.4312 2.80005 58.8528C3.23005 60.3554 4.28997 60.8656 4.71997 59.7772C4.84997 59.4597 4.96999 59.8756 4.98999 60.7016C5.00999 61.8834 5.22005 62.2037 5.93005 62.2037C6.78005 62.2037 6.83997 61.8954 6.83997 57.5495C6.83997 53.0178 6.80997 52.8995 5.83997 53.0432C5.04997 53.1606 4.73997 53.6681 4.33997 55.502L3.83997 57.8129L3.40002 55.502C3.05002 53.6232 2.77995 53.1634 1.94995 53.0432C0.949951 52.8985 0.930054 52.9914 0.930054 57.5495ZM7.39001 57.4663L7.52002 61.9726L9.68005 62.1135L11.84 62.2545V57.6073V52.96H9.55005H7.26001L7.39001 57.4663ZM12.29 57.5818V62.2037H14.34C16.37 62.2037 16.39 62.1949 16.39 60.586C16.39 59.4564 16.18 58.9684 15.7 58.9684C15.33 58.9684 15.02 59.3793 15.02 59.8927C15.02 60.4011 14.8199 60.8171 14.5699 60.8171C14.3099 60.8171 14.11 59.4306 14.11 57.5818C14.11 55.7331 14.3099 54.3466 14.5699 54.3466C14.8199 54.3466 15.02 54.6585 15.02 55.0398C15.02 55.4211 15.33 55.7331 15.7 55.7331C16.16 55.7331 16.39 55.2709 16.39 54.3466C16.39 53.0113 16.31 52.96 14.34 52.96H12.29V57.5818ZM17.29 57.5818C17.29 61.3819 17.42 62.2037 17.98 62.2037C18.48 62.2037 18.67 61.6301 18.71 60.0083L18.75 57.8129L19.41 60.0083C19.89 61.5908 20.31 62.2037 20.91 62.2037C21.7 62.2037 21.71 62.0779 21.09 60.0083C20.46 57.9359 20.49 56.4684 21.21 53.9532C21.72 52.1341 19.97 52.9221 19.3 54.8087L18.73 56.4264L18.6899 54.6932C18.6699 53.4763 18.46 52.96 17.98 52.96C17.42 52.96 17.29 53.7818 17.29 57.5818ZM21.9399 57.4663L22.0699 61.9726L24.23 62.1135L26.39 62.2545V57.6073V52.96H24.1H21.8101L21.9399 57.4663ZM26.84 57.5818V62.2037H28.89H30.9301V57.5818V52.96H28.89H26.84V57.5818ZM31.84 57.5818V62.2037H33.89C35.92 62.2037 35.9301 62.1949 35.9301 60.586C35.9301 59.4564 35.73 58.9684 35.25 58.9684C34.87 58.9684 34.5699 59.3793 34.5699 59.8927C34.5699 60.4062 34.26 60.8171 33.89 60.8171C33.34 60.8171 33.2 60.1497 33.2 57.5818C33.2 55.014 33.34 54.3466 33.89 54.3466C34.26 54.3466 34.5699 54.6585 34.5699 55.0398C34.5699 55.4211 34.87 55.7331 35.25 55.7331C35.7 55.7331 35.9301 55.2709 35.9301 54.3466C35.9301 53.0113 35.86 52.96 33.89 52.96H31.84V57.5818ZM36.39 57.5818C36.39 61.8954 36.45 62.2037 37.29 62.2037C38.06 62.2037 38.21 61.8838 38.24 60.2394L38.27 58.2751L38.8199 60.1201C39.1399 61.2021 39.69 62.0285 40.15 62.1182C41.09 62.3035 41.1 62.1145 40.27 59.3127C39.69 57.3947 39.69 56.8719 40.27 55.2104C41.09 52.8477 41.1 52.96 40.09 52.96C39.54 52.96 39.08 53.4804 38.77 54.4621L38.3 55.9642L38.25 54.4621C38.21 53.284 38.01 52.96 37.29 52.96C36.45 52.96 36.39 53.2683 36.39 57.5818ZM41.39 57.5818C41.39 61.3819 41.5099 62.2037 42.0699 62.2037C42.4699 62.2037 42.76 61.7729 42.77 61.1638C42.77 60.5916 43.0701 59.6039 43.4301 58.9684C44.0601 57.8439 44.08 57.8716 44.1 60.0083C44.11 61.8903 44.24 62.2037 45.02 62.2037C45.87 62.2037 45.9301 61.8954 45.9301 57.5818C45.9301 53.2683 45.87 52.96 45.02 52.96C44.38 52.96 44.11 53.2683 44.11 54.0272C44.11 54.6142 43.81 55.4979 43.45 55.9915C42.82 56.8262 42.78 56.7518 42.76 54.9243C42.75 53.4929 42.5599 52.96 42.0699 52.96C41.5099 52.96 41.39 53.7818 41.39 57.5818ZM46.39 57.5818C46.39 61.8954 46.45 62.2037 47.29 62.2037C47.98 62.2037 48.21 61.8903 48.22 60.9327C48.23 60.2338 48.53 59.1417 48.89 58.5062C49.51 57.3933 49.5401 57.4399 49.55 59.7772C49.56 61.6185 49.73 62.2037 50.25 62.2037C50.81 62.2037 50.9301 61.3819 50.9301 57.5818C50.9301 52.4747 50.38 51.6262 49.04 54.6955L48.29 56.4264L48.25 54.6932C48.21 53.2831 48.03 52.96 47.29 52.96C46.45 52.96 46.39 53.2683 46.39 57.5818ZM10.02 57.5818C10.02 59.4306 9.82995 60.8171 9.56995 60.8171C9.30995 60.8171 9.10999 59.4306 9.10999 57.5818C9.10999 55.7331 9.30995 54.3466 9.56995 54.3466C9.82995 54.3466 10.02 55.7331 10.02 57.5818ZM24.5699 57.5818C24.5699 59.4306 24.37 60.8171 24.11 60.8171C23.85 60.8171 23.66 59.4306 23.66 57.5818C23.66 55.7331 23.85 54.3466 24.11 54.3466C24.37 54.3466 24.5699 55.7331 24.5699 57.5818ZM29.5699 55.2709C29.5699 55.7793 29.36 56.1953 29.11 56.1953C28.86 56.1953 28.66 55.7793 28.66 55.2709C28.66 54.7625 28.86 54.3466 29.11 54.3466C29.36 54.3466 29.5699 54.7625 29.5699 55.2709ZM5.47998 57.8129C5.47998 57.94 5.37 58.044 5.25 58.044C5.12 58.044 5.02002 57.94 5.02002 57.8129C5.02002 57.6858 5.12 57.5818 5.25 57.5818C5.37 57.5818 5.47998 57.6858 5.47998 57.8129ZM29.5699 59.4306C29.5699 60.1932 29.36 60.8171 29.11 60.8171C28.86 60.8171 28.66 60.1932 28.66 59.4306C28.66 58.668 28.86 58.044 29.11 58.044C29.36 58.044 29.5699 58.668 29.5699 59.4306ZM14.3101 66.0555C14.1801 66.3943 14.13 68.4223 14.21 70.5618L14.34 74.4515L16.5 74.5925L18.66 74.7334V73.0904C18.66 71.7556 18.49 71.4473 17.75 71.4473C17.14 71.4473 16.84 71.7556 16.84 72.3717C16.84 72.8801 16.64 73.296 16.39 73.296C16.13 73.296 15.9301 71.9095 15.9301 70.0608C15.9301 66.7141 16.1301 66.288 17.0601 67.5895C17.7701 68.5781 18.66 68.011 18.66 66.5671C18.66 65.5369 18.48 65.4389 16.6 65.4389C15.3 65.4389 14.4501 65.6673 14.3101 66.0555ZM19.11 70.0608C19.11 73.8608 19.23 74.6826 19.79 74.6826C20.35 74.6826 20.48 73.938 20.48 70.754C20.48 67.5701 20.61 66.8255 21.16 66.8255C21.71 66.8255 21.84 67.5701 21.84 70.754C21.84 74.3743 21.91 74.6826 22.75 74.6826C23.6 74.6826 23.66 74.3743 23.66 70.0608V65.4389H21.39H19.11V70.0608ZM24.11 70.0608V74.6826H26.16H28.2V70.0608V65.4389H26.16H24.11V70.0608ZM29.11 70.0608C29.11 73.8608 29.23 74.6826 29.79 74.6826C30.25 74.6826 30.48 74.2236 30.48 73.3265C30.48 72.1914 30.68 71.9469 31.73 71.8244C32.94 71.683 32.98 71.5795 33.11 68.5587L33.25 65.4389H31.1801H29.11V70.0608ZM33.66 66.1322C33.66 66.5135 33.97 66.8255 34.34 66.8255C34.89 66.8255 35.02 67.5701 35.02 70.754C35.02 73.938 35.15 74.6826 35.7 74.6826C36.26 74.6826 36.39 73.938 36.39 70.754C36.39 67.5701 36.5099 66.8255 37.0699 66.8255C37.4399 66.8255 37.75 66.5135 37.75 66.1322C37.75 65.6187 37.22 65.4389 35.7 65.4389C34.19 65.4389 33.66 65.6187 33.66 66.1322ZM26.84 70.0608C26.84 72.6286 26.7 73.296 26.16 73.296C25.62 73.296 25.48 72.6286 25.48 70.0608C25.48 67.4929 25.62 66.8255 26.16 66.8255C26.7 66.8255 26.84 67.4929 26.84 70.0608ZM31.84 68.4431C31.84 69.5727 31.63 70.0608 31.16 70.0608C30.68 70.0608 30.48 69.5727 30.48 68.4431C30.48 67.3135 30.68 66.8255 31.16 66.8255C31.63 66.8255 31.84 67.3135 31.84 68.4431Z" fill="black"/>
</svg>
