<svg width="267" height="42" viewBox="0 0 267 42" fill="none" xmlns="http://www.w3.org/2000/svg">
<path d="M46.86 19.0684V14.1318C47.3 14.1318 47.66 14.0252 47.96 13.812C48.27 13.5921 48.52 13.2857 48.71 12.8926C48.9 12.4929 49.06 12.0265 49.17 11.4936C49.28 10.9606 49.37 10.381 49.42 9.75467C49.49 8.95527 49.55 8.16906 49.6 7.39627C49.65 6.61687 49.71 5.81066 49.76 4.97796C49.81 4.13846 49.8699 3.23247 49.9399 2.25977L59.49 2.27977V14.1318H60.59V19.0684H57.88V16.67H49.58V19.0684H46.86ZM50.92 14.1318H56.78V4.81806L52.42 4.79807C52.37 5.45767 52.33 6.06387 52.3 6.61687C52.27 7.16976 52.24 7.72936 52.2 8.29566C52.16 8.86196 52.11 9.49486 52.04 10.1944C51.97 10.894 51.91 11.4702 51.84 11.9233C51.77 12.3696 51.67 12.7594 51.53 13.0925C51.4 13.4256 51.19 13.772 50.92 14.1318Z" fill="#393737"/>
<path d="M67.21 16.9698C66.1 16.9698 65.12 16.7333 64.28 16.2603C63.44 15.7806 62.78 15.1244 62.3 14.2916C61.83 13.4522 61.59 12.4929 61.59 11.4136C61.59 10.2344 61.82 9.20844 62.29 8.33574C62.76 7.46304 63.4 6.78674 64.22 6.30714C65.04 5.82074 65.98 5.57764 67.05 5.57764C68.18 5.57764 69.1401 5.84414 69.9301 6.37704C70.7301 6.91004 71.3099 7.65954 71.6899 8.62554C72.0699 9.59154 72.21 10.7274 72.09 12.0332H69.4V11.0339C69.4 9.93464 69.23 9.14513 68.87 8.66553C68.53 8.17913 67.96 7.93604 67.17 7.93604C66.24 7.93604 65.56 8.21913 65.12 8.78543C64.68 9.34503 64.47 10.1744 64.47 11.2737C64.47 12.2797 64.68 13.0592 65.12 13.6121C65.56 14.1584 66.2 14.4316 67.05 14.4316C67.58 14.4316 68.04 14.315 68.41 14.0818C68.79 13.8486 69.08 13.5122 69.28 13.0725L72 13.8519C71.6 14.8379 70.9499 15.6041 70.0699 16.1504C69.1999 16.6967 68.24 16.9698 67.21 16.9698ZM63.63 12.0332V10.0146H70.78V12.0332H63.63Z" fill="#393737"/>
<path d="M73.73 16.67V5.87744H83.36V16.67H80.64V8.41564H76.45V16.67H73.73Z" fill="#393737"/>
<path d="M88.5601 16.9698C87.7901 16.9698 87.13 16.8233 86.59 16.5301C86.06 16.2303 85.65 15.8339 85.37 15.3409C85.1 14.8413 84.96 14.2916 84.96 13.6921C84.96 13.1924 85.0399 12.736 85.1899 12.323C85.3499 11.9099 85.5901 11.5468 85.9301 11.2337C86.2801 10.9139 86.7399 10.6475 87.3199 10.4343C87.7199 10.2877 88.2 10.1578 88.75 10.0445C89.3 9.93134 89.93 9.82473 90.63 9.72483C91.33 9.61823 92.0999 9.50163 92.9399 9.37503L91.96 9.91463C91.96 9.27513 91.81 8.80543 91.5 8.50563C91.19 8.20583 90.68 8.05593 89.96 8.05593C89.56 8.05593 89.14 8.15254 88.71 8.34574C88.28 8.53894 87.97 8.88203 87.8 9.37503L85.34 8.59554C85.62 7.70284 86.13 6.97663 86.88 6.41703C87.63 5.85743 88.66 5.57764 89.96 5.57764C90.91 5.57764 91.76 5.72414 92.5 6.01734C93.24 6.31044 93.8001 6.81674 94.1801 7.53624C94.3901 7.93604 94.5201 8.33574 94.5601 8.73544C94.6001 9.13524 94.62 9.58154 94.62 10.0745V16.67H92.24V14.4515L92.58 14.9112C92.05 15.6374 91.48 16.1637 90.87 16.4902C90.26 16.8099 89.4901 16.9698 88.5601 16.9698ZM89.14 14.8313C89.64 14.8313 90.06 14.7447 90.4 14.5715C90.75 14.3916 91.02 14.1884 91.22 13.9619C91.43 13.7354 91.57 13.5455 91.64 13.3923C91.78 13.0991 91.86 12.7594 91.88 12.373C91.91 11.9799 91.92 11.6534 91.92 11.3936L92.72 11.5935C91.91 11.7267 91.26 11.84 90.76 11.9333C90.26 12.0199 89.86 12.0998 89.55 12.1731C89.24 12.2464 88.97 12.3263 88.74 12.4129C88.47 12.5195 88.26 12.6361 88.09 12.7627C87.93 12.8826 87.81 13.0158 87.73 13.1624C87.66 13.309 87.62 13.4722 87.62 13.6521C87.62 13.8986 87.68 14.1118 87.8 14.2916C87.93 14.4649 88.1 14.5981 88.33 14.6914C88.56 14.7846 88.83 14.8313 89.14 14.8313Z" fill="#393737"/>
<path d="M101.91 16.9698C100.84 16.9698 99.94 16.72 99.22 16.2203C98.5 15.7207 97.96 15.0411 97.59 14.1817C97.24 13.3223 97.0601 12.353 97.0601 11.2737C97.0601 10.1944 97.24 9.22513 97.59 8.36573C97.95 7.50633 98.4801 6.82674 99.1801 6.32714C99.8801 5.82744 100.75 5.57764 101.77 5.57764C102.8 5.57764 103.7 5.82413 104.47 6.31713C105.24 6.81013 105.83 7.48634 106.25 8.34574C106.68 9.19844 106.89 10.1744 106.89 11.2737C106.89 12.353 106.68 13.3223 106.26 14.1817C105.85 15.0411 105.27 15.7207 104.52 16.2203C103.77 16.72 102.9 16.9698 101.91 16.9698ZM96.6 21.4668V5.87744H98.99V13.2723H99.33V21.4668H96.6ZM101.47 14.5515C102.06 14.5515 102.54 14.4049 102.91 14.1118C103.28 13.8186 103.56 13.4256 103.74 12.9326C103.92 12.4329 104.01 11.88 104.01 11.2737C104.01 10.6741 103.92 10.1278 103.73 9.63483C103.54 9.13523 103.25 8.73884 102.86 8.44564C102.47 8.14584 101.98 7.99594 101.37 7.99594C100.81 7.99594 100.35 8.13254 99.99 8.40564C99.65 8.67884 99.39 9.06194 99.23 9.55494C99.07 10.0479 98.99 10.6208 98.99 11.2737C98.99 11.9266 99.07 12.4995 99.23 12.9925C99.39 13.4855 99.65 13.8686 100.01 14.1418C100.38 14.4149 100.87 14.5515 101.47 14.5515Z" fill="#393737"/>
<path d="M111.13 16.67V8.27574H107.59V5.87744H117.38V8.27574H113.84V16.67H111.13Z" fill="#393737"/>
<path d="M121.47 16.9698C120.69 16.9698 120.04 16.8233 119.5 16.5301C118.96 16.2303 118.56 15.8339 118.28 15.3409C118 14.8413 117.87 14.2916 117.87 13.6921C117.87 13.1924 117.94 12.736 118.1 12.323C118.25 11.9099 118.5 11.5468 118.84 11.2337C119.18 10.9139 119.65 10.6475 120.23 10.4343C120.63 10.2877 121.1 10.1578 121.65 10.0445C122.21 9.93134 122.83 9.82473 123.53 9.72483C124.23 9.61823 125 9.50163 125.84 9.37503L124.86 9.91463C124.86 9.27513 124.71 8.80543 124.4 8.50563C124.1 8.20583 123.58 8.05593 122.86 8.05593C122.46 8.05593 122.05 8.15254 121.61 8.34574C121.18 8.53894 120.88 8.88203 120.71 9.37503L118.25 8.59554C118.52 7.70284 119.03 6.97663 119.79 6.41703C120.54 5.85743 121.57 5.57764 122.86 5.57764C123.82 5.57764 124.66 5.72414 125.4 6.01734C126.14 6.31044 126.7 6.81674 127.08 7.53624C127.29 7.93604 127.42 8.33574 127.46 8.73544C127.5 9.13524 127.52 9.58154 127.52 10.0745V16.67H125.14V14.4515L125.48 14.9112C124.96 15.6374 124.39 16.1637 123.77 16.4902C123.17 16.8099 122.4 16.9698 121.47 16.9698ZM122.04 14.8313C122.54 14.8313 122.96 14.7447 123.3 14.5715C123.65 14.3916 123.92 14.1884 124.12 13.9619C124.33 13.7354 124.47 13.5455 124.54 13.3923C124.68 13.0991 124.76 12.7594 124.78 12.373C124.81 11.9799 124.82 11.6534 124.82 11.3936L125.62 11.5935C124.82 11.7267 124.16 11.84 123.66 11.9333C123.16 12.0199 122.76 12.0998 122.45 12.1731C122.15 12.2464 121.88 12.3263 121.64 12.4129C121.38 12.5195 121.16 12.6361 121 12.7627C120.84 12.8826 120.72 13.0158 120.64 13.1624C120.56 13.309 120.53 13.4722 120.53 13.6521C120.53 13.8986 120.59 14.1118 120.71 14.2916C120.83 14.4649 121.01 14.5981 121.24 14.6914C121.46 14.7846 121.73 14.8313 122.04 14.8313Z" fill="#393737"/>
<path d="M129.5 16.67V5.87744H131.7L135.46 12.8726L139.21 5.87744H141.41V16.67H138.81V11.2937L135.94 16.67H134.98L132.1 11.2937V16.67H129.5Z" fill="#393737"/>
<path d="M148.63 16.9698C147.53 16.9698 146.55 16.7333 145.71 16.2603C144.87 15.7806 144.21 15.1244 143.73 14.2916C143.25 13.4522 143.02 12.4929 143.02 11.4136C143.02 10.2344 143.25 9.20844 143.72 8.33574C144.18 7.46304 144.83 6.78674 145.65 6.30714C146.47 5.82074 147.41 5.57764 148.47 5.57764C149.61 5.57764 150.57 5.84414 151.36 6.37704C152.15 6.91004 152.74 7.65954 153.12 8.62554C153.5 9.59154 153.63 10.7274 153.52 12.0332H150.83V11.0339C150.83 9.93464 150.66 9.14513 150.3 8.66553C149.96 8.17913 149.39 7.93604 148.59 7.93604C147.67 7.93604 146.98 8.21913 146.55 8.78543C146.11 9.34503 145.9 10.1744 145.9 11.2737C145.9 12.2797 146.11 13.0592 146.55 13.6121C146.98 14.1584 147.63 14.4316 148.47 14.4316C149.01 14.4316 149.46 14.315 149.84 14.0818C150.22 13.8486 150.51 13.5122 150.71 13.0725L153.43 13.8519C153.02 14.8379 152.38 15.6041 151.5 16.1504C150.63 16.6967 149.67 16.9698 148.63 16.9698ZM145.06 12.0332V10.0146H152.21V12.0332H145.06Z" fill="#393737"/>
<path d="M155.16 16.67V5.87744H157.88V9.99464H162.31V5.87744H165.03V16.67H162.31V12.5328H157.88V16.67H155.16Z" fill="#393737"/>
<path d="M169.86 16.67V8.27574H166.33V5.87744H176.12V8.27574H172.58V16.67H169.86Z" fill="#393737"/>
<path d="M47.66 36.67V22.2798H50.38V28.9153L55.86 22.2798H59.17L53.16 29.375L59.55 36.67H56.12L50.38 30.1145V36.67H47.66Z" fill="#393737"/>
<path d="M63.35 36.9698C62.58 36.9698 61.92 36.8233 61.38 36.5301C60.85 36.2303 60.44 35.8339 60.16 35.3409C59.89 34.8413 59.75 34.2917 59.75 33.6921C59.75 33.1924 59.83 32.736 59.98 32.323C60.14 31.9099 60.38 31.5468 60.72 31.2337C61.07 30.9139 61.53 30.6475 62.11 30.4343C62.51 30.2877 62.99 30.1578 63.54 30.0445C64.1 29.9313 64.72 29.8247 65.42 29.7248C66.12 29.6182 66.89 29.5016 67.73 29.375L66.75 29.9146C66.75 29.2751 66.6 28.8054 66.29 28.5056C65.98 28.2058 65.47 28.0559 64.75 28.0559C64.35 28.0559 63.94 28.1525 63.5 28.3457C63.07 28.5389 62.77 28.882 62.59 29.375L60.13 28.5955C60.41 27.7028 60.92 26.9766 61.67 26.417C62.43 25.8574 63.45 25.5776 64.75 25.5776C65.7 25.5776 66.55 25.7241 67.29 26.0173C68.03 26.3104 68.59 26.8167 68.97 27.5362C69.18 27.936 69.31 28.3357 69.35 28.7354C69.39 29.1352 69.41 29.5815 69.41 30.0745V36.67H67.03V34.4515L67.37 34.9112C66.84 35.6374 66.27 36.1637 65.66 36.4902C65.05 36.8099 64.28 36.9698 63.35 36.9698ZM63.9301 34.8313C64.4301 34.8313 64.8499 34.7447 65.1899 34.5715C65.5399 34.3916 65.81 34.1884 66.01 33.9619C66.22 33.7354 66.3601 33.5455 66.4301 33.3923C66.5701 33.0991 66.65 32.7594 66.67 32.373C66.7 31.9799 66.71 31.6534 66.71 31.3936L67.51 31.5935C66.7 31.7267 66.05 31.84 65.55 31.9333C65.05 32.0199 64.65 32.0998 64.34 32.1731C64.04 32.2464 63.77 32.3263 63.53 32.4129C63.27 32.5195 63.05 32.6361 62.88 32.7627C62.72 32.8826 62.6 33.0158 62.52 33.1624C62.45 33.309 62.41 33.4722 62.41 33.6521C62.41 33.8986 62.47 34.1118 62.59 34.2916C62.72 34.4649 62.9 34.5981 63.12 34.6914C63.35 34.7846 63.6201 34.8313 63.9301 34.8313Z" fill="#393737"/>
<path d="M71.39 36.67V25.8774H81.02V36.67H78.3V28.4156H74.11V36.67H71.39Z" fill="#393737"/>
<path d="M92.83 25.8774V36.67H90.24V30.0745L85.36 36.67H83.2V25.8774H85.8V32.253L90.7 25.8774H92.83Z" fill="#393737"/>
<path d="M97.67 36.67V28.2757H94.14V25.8774H103.93V28.2757H100.39V36.67H97.67Z" fill="#393737"/>
<path d="M108.01 36.9698C107.24 36.9698 106.58 36.8233 106.04 36.5301C105.51 36.2303 105.1 35.8339 104.82 35.3409C104.55 34.8413 104.41 34.2917 104.41 33.6921C104.41 33.1924 104.49 32.736 104.64 32.323C104.8 31.9099 105.04 31.5468 105.38 31.2337C105.73 30.9139 106.19 30.6475 106.77 30.4343C107.17 30.2877 107.65 30.1578 108.2 30.0445C108.75 29.9313 109.38 29.8247 110.08 29.7248C110.78 29.6182 111.55 29.5016 112.39 29.375L111.41 29.9146C111.41 29.2751 111.26 28.8054 110.95 28.5056C110.64 28.2058 110.13 28.0559 109.41 28.0559C109.01 28.0559 108.59 28.1525 108.16 28.3457C107.73 28.5389 107.43 28.882 107.25 29.375L104.79 28.5955C105.07 27.7028 105.58 26.9766 106.33 26.417C107.09 25.8574 108.11 25.5776 109.41 25.5776C110.36 25.5776 111.21 25.7241 111.95 26.0173C112.69 26.3104 113.25 26.8167 113.63 27.5362C113.84 27.936 113.97 28.3357 114.01 28.7354C114.05 29.1352 114.07 29.5815 114.07 30.0745V36.67H111.69V34.4515L112.03 34.9112C111.5 35.6374 110.93 36.1637 110.32 36.4902C109.71 36.8099 108.94 36.9698 108.01 36.9698ZM108.59 34.8313C109.09 34.8313 109.51 34.7447 109.85 34.5715C110.2 34.3916 110.47 34.1884 110.67 33.9619C110.88 33.7354 111.02 33.5455 111.09 33.3923C111.23 33.0991 111.31 32.7594 111.33 32.373C111.36 31.9799 111.37 31.6534 111.37 31.3936L112.17 31.5935C111.36 31.7267 110.71 31.84 110.21 31.9333C109.71 32.0199 109.31 32.0998 109 32.1731C108.69 32.2464 108.42 32.3263 108.19 32.4129C107.93 32.5195 107.71 32.6361 107.54 32.7627C107.38 32.8826 107.26 33.0158 107.18 33.1624C107.11 33.309 107.07 33.4722 107.07 33.6521C107.07 33.8986 107.13 34.1118 107.25 34.2916C107.38 34.4649 107.56 34.5981 107.78 34.6914C108.01 34.7846 108.28 34.8313 108.59 34.8313Z" fill="#393737"/>
<path d="M115.07 36.67V34.4116C115.46 34.4849 115.76 34.4815 115.98 34.4016C116.19 34.315 116.35 34.1484 116.46 33.9019C116.57 33.6488 116.67 33.3057 116.75 32.8726C116.85 32.2997 116.95 31.6301 117.03 30.864C117.11 30.0978 117.19 29.2884 117.25 28.4356C117.31 27.5762 117.36 26.7235 117.41 25.8774H125.56V36.67H122.84V28.4156H119.78C119.76 28.7621 119.72 29.1751 119.67 29.6548C119.63 30.1345 119.59 30.6341 119.53 31.1538C119.49 31.6668 119.43 32.1598 119.37 32.6328C119.31 33.0991 119.25 33.4989 119.18 33.832C119.02 34.6781 118.79 35.3443 118.47 35.8306C118.16 36.3169 117.73 36.6267 117.19 36.76C116.64 36.8999 115.93 36.8699 115.07 36.67Z" fill="#393737"/>
<path d="M127.74 36.67V25.8774H130.46V29.315H132.2C132.5 29.315 132.85 29.3217 133.25 29.335C133.65 29.3483 133.98 29.3817 134.24 29.435C134.87 29.5749 135.4 29.798 135.84 30.1045C136.27 30.411 136.6 30.8074 136.82 31.2937C137.04 31.7734 137.16 32.3463 137.16 33.0125C137.16 33.9719 136.91 34.7447 136.41 35.3309C135.91 35.9105 135.2 36.3103 134.26 36.5301C134 36.5901 133.67 36.6301 133.26 36.65C132.85 36.6634 132.5 36.67 132.2 36.67H127.74ZM130.46 34.5715H132.5C132.62 34.5715 132.75 34.5648 132.9 34.5515C133.05 34.5381 133.19 34.5115 133.34 34.4715C133.62 34.3916 133.87 34.215 134.08 33.9419C134.29 33.6687 134.4 33.3589 134.4 33.0125C134.4 32.6328 134.29 32.3097 134.07 32.0432C133.85 31.77 133.59 31.5935 133.3 31.5135C133.16 31.4736 133.02 31.4469 132.88 31.4336C132.74 31.4203 132.61 31.4136 132.5 31.4136H130.46V34.5715Z" fill="#393737"/>
<path d="M138.44 36.67V25.8774H141.16V29.9946H145.6V25.8774H148.32V36.67H145.6V32.5328H141.16V36.67H138.44Z" fill="#393737"/>
<path d="M155.37 36.9698C154.28 36.9698 153.33 36.7267 152.51 36.2403C151.69 35.754 151.05 35.0844 150.59 34.2317C150.14 33.3723 149.91 32.3863 149.91 31.2737C149.91 30.1478 150.15 29.1585 150.61 28.3057C151.08 27.4463 151.72 26.7768 152.54 26.2971C153.36 25.8174 154.3 25.5776 155.37 25.5776C156.46 25.5776 157.41 25.8207 158.23 26.3071C159.05 26.7934 159.7 27.4663 160.16 28.3257C160.62 29.1785 160.85 30.1611 160.85 31.2737C160.85 32.3929 160.61 33.3823 160.15 34.2417C159.69 35.0944 159.04 35.764 158.22 36.2503C157.4 36.73 156.45 36.9698 155.37 36.9698ZM155.37 34.4316C156.24 34.4316 156.89 34.1384 157.32 33.5522C157.75 32.9592 157.97 32.1997 157.97 31.2737C157.97 30.3144 157.75 29.5482 157.31 28.9753C156.87 28.4023 156.23 28.1158 155.37 28.1158C154.78 28.1158 154.29 28.2491 153.91 28.5156C153.53 28.7821 153.25 29.1518 153.06 29.6248C152.88 30.0978 152.79 30.6475 152.79 31.2737C152.79 32.2397 153.01 33.0092 153.44 33.5821C153.88 34.1484 154.52 34.4316 155.37 34.4316Z" fill="#393737"/>
<path d="M162.44 36.67V25.8774H170.24V28.4156H165.16V36.67H162.44Z" fill="#393737"/>
<path d="M176.21 36.9698C175.12 36.9698 174.17 36.7267 173.35 36.2403C172.53 35.754 171.89 35.0844 171.43 34.2317C170.98 33.3723 170.75 32.3863 170.75 31.2737C170.75 30.1478 170.98 29.1585 171.45 28.3057C171.92 27.4463 172.56 26.7768 173.38 26.2971C174.2 25.8174 175.14 25.5776 176.21 25.5776C177.29 25.5776 178.24 25.8207 179.06 26.3071C179.89 26.7934 180.53 27.4663 180.99 28.3257C181.45 29.1785 181.68 30.1611 181.68 31.2737C181.68 32.3929 181.45 33.3823 180.98 34.2417C180.52 35.0944 179.88 35.764 179.05 36.2503C178.23 36.73 177.29 36.9698 176.21 36.9698ZM176.21 34.4316C177.08 34.4316 177.73 34.1384 178.15 33.5522C178.59 32.9592 178.8 32.1997 178.8 31.2737C178.8 30.3144 178.58 29.5482 178.14 28.9753C177.71 28.4023 177.07 28.1158 176.21 28.1158C175.61 28.1158 175.13 28.2491 174.75 28.5156C174.37 28.7821 174.08 29.1518 173.9 29.6248C173.72 30.0978 173.63 30.6475 173.63 31.2737C173.63 32.2397 173.84 33.0092 174.28 33.5821C174.72 34.1484 175.36 34.4316 176.21 34.4316Z" fill="#393737"/>
<path d="M191.98 36.9698C190.91 36.9698 190.01 36.72 189.29 36.2203C188.57 35.7207 188.03 35.0411 187.66 34.1817C187.3 33.3223 187.12 32.353 187.12 31.2737C187.12 30.1944 187.3 29.2251 187.66 28.3657C188.02 27.5063 188.55 26.8267 189.25 26.3271C189.95 25.8274 190.81 25.5776 191.84 25.5776C192.87 25.5776 193.77 25.8241 194.54 26.3171C195.3 26.8101 195.9 27.4863 196.32 28.3457C196.74 29.1984 196.95 30.1744 196.95 31.2737C196.95 32.353 196.74 33.3223 196.33 34.1817C195.91 35.0411 195.33 35.7207 194.59 36.2203C193.84 36.72 192.97 36.9698 191.98 36.9698ZM186.66 41.4668V25.8774H189.06V33.2723H189.4V41.4668H186.66ZM191.54 34.5515C192.12 34.5515 192.6 34.4049 192.98 34.1118C193.35 33.8186 193.63 33.4256 193.81 32.9326C193.99 32.4329 194.08 31.88 194.08 31.2737C194.08 30.6741 193.98 30.1278 193.8 29.6348C193.61 29.1352 193.32 28.7388 192.93 28.4456C192.54 28.1458 192.04 27.9959 191.44 27.9959C190.87 27.9959 190.41 28.1325 190.06 28.4056C189.71 28.6788 189.46 29.0619 189.3 29.5549C189.14 30.0479 189.06 30.6208 189.06 31.2737C189.06 31.9266 189.14 32.4995 189.3 32.9925C189.46 33.4855 189.72 33.8686 190.08 34.1417C190.45 34.4149 190.93 34.5515 191.54 34.5515Z" fill="#393737"/>
<path d="M203.57 36.9698C202.46 36.9698 201.49 36.7333 200.64 36.2603C199.8 35.7806 199.14 35.1244 198.66 34.2916C198.19 33.4522 197.95 32.4929 197.95 31.4136C197.95 30.2344 198.19 29.2084 198.65 28.3357C199.12 27.463 199.76 26.7867 200.58 26.3071C201.4 25.8207 202.34 25.5776 203.41 25.5776C204.54 25.5776 205.51 25.8441 206.3 26.377C207.09 26.91 207.68 27.6595 208.06 28.6255C208.44 29.5915 208.57 30.7274 208.46 32.0332H205.77V31.0339C205.77 29.9346 205.59 29.1451 205.24 28.6655C204.89 28.1791 204.32 27.936 203.53 27.936C202.6 27.936 201.92 28.2191 201.48 28.7854C201.05 29.345 200.83 30.1744 200.83 31.2737C200.83 32.2797 201.05 33.0591 201.48 33.6121C201.92 34.1584 202.56 34.4316 203.41 34.4316C203.94 34.4316 204.4 34.315 204.78 34.0818C205.16 33.8486 205.45 33.5122 205.65 33.0725L208.37 33.8519C207.96 34.8379 207.32 35.6041 206.44 36.1504C205.57 36.6967 204.61 36.9698 203.57 36.9698ZM199.99 32.0332V30.0146H207.15V32.0332H199.99Z" fill="#393737"/>
<path d="M209.8 36.67V25.8774H212L215.76 32.8726L219.51 25.8774H221.71V36.67H219.12V31.2937L216.24 36.67H215.28L212.4 31.2937V36.67H209.8Z" fill="#393737"/>
<path d="M228.78 36.9698C227.69 36.9698 226.74 36.7267 225.92 36.2403C225.1 35.754 224.46 35.0844 224 34.2317C223.55 33.3723 223.32 32.3863 223.32 31.2737C223.32 30.1478 223.55 29.1585 224.02 28.3057C224.49 27.4463 225.13 26.7768 225.95 26.2971C226.77 25.8174 227.71 25.5776 228.78 25.5776C229.86 25.5776 230.81 25.8207 231.63 26.3071C232.46 26.7934 233.1 27.4663 233.56 28.3257C234.02 29.1785 234.25 30.1611 234.25 31.2737C234.25 32.3929 234.02 33.3823 233.55 34.2417C233.09 35.0944 232.45 35.764 231.62 36.2503C230.8 36.73 229.85 36.9698 228.78 36.9698ZM228.78 34.4316C229.65 34.4316 230.3 34.1384 230.72 33.5522C231.16 32.9592 231.37 32.1997 231.37 31.2737C231.37 30.3144 231.15 29.5482 230.71 28.9753C230.28 28.4023 229.64 28.1158 228.78 28.1158C228.18 28.1158 227.7 28.2491 227.32 28.5156C226.94 28.7821 226.65 29.1518 226.47 29.6248C226.29 30.0978 226.2 30.6475 226.2 31.2737C226.2 32.2397 226.41 33.0092 226.85 33.5821C227.29 34.1484 227.93 34.4316 228.78 34.4316Z" fill="#393737"/>
<path d="M235.83 36.67V25.8774H238.55V29.9946H242.99V25.8774H245.7V36.67H242.99V32.5328H238.55V36.67H235.83Z" fill="#393737"/>
<path d="M250.54 36.67V28.2757H247V25.8774H256.79V28.2757H253.25V36.67H250.54Z" fill="#393737"/>
<path d="M260.88 36.9698C260.1 36.9698 259.45 36.8233 258.91 36.5301C258.37 36.2303 257.97 35.8339 257.69 35.3409C257.41 34.8413 257.28 34.2917 257.28 33.6921C257.28 33.1924 257.35 32.736 257.51 32.323C257.66 31.9099 257.91 31.5468 258.25 31.2337C258.59 30.9139 259.06 30.6475 259.64 30.4343C260.04 30.2877 260.51 30.1578 261.06 30.0445C261.62 29.9313 262.24 29.8247 262.94 29.7248C263.64 29.6182 264.41 29.5016 265.25 29.375L264.27 29.9146C264.27 29.2751 264.12 28.8054 263.81 28.5056C263.51 28.2058 262.99 28.0559 262.27 28.0559C261.87 28.0559 261.46 28.1525 261.02 28.3457C260.59 28.5389 260.29 28.882 260.12 29.375L257.66 28.5955C257.93 27.7028 258.44 26.9766 259.2 26.417C259.95 25.8574 260.97 25.5776 262.27 25.5776C263.23 25.5776 264.07 25.7241 264.81 26.0173C265.55 26.3104 266.11 26.8167 266.49 27.5362C266.7 27.936 266.83 28.3357 266.87 28.7354C266.91 29.1352 266.93 29.5815 266.93 30.0745V36.67H264.55V34.4515L264.89 34.9112C264.37 35.6374 263.8 36.1637 263.18 36.4902C262.58 36.8099 261.81 36.9698 260.88 36.9698ZM261.45 34.8313C261.95 34.8313 262.37 34.7447 262.71 34.5715C263.06 34.3916 263.33 34.1884 263.53 33.9619C263.74 33.7354 263.88 33.5455 263.95 33.3923C264.09 33.0991 264.17 32.7594 264.19 32.373C264.22 31.9799 264.23 31.6534 264.23 31.3936L265.03 31.5935C264.23 31.7267 263.57 31.84 263.07 31.9333C262.57 32.0199 262.17 32.0998 261.86 32.1731C261.56 32.2464 261.29 32.3263 261.05 32.4129C260.79 32.5195 260.57 32.6361 260.41 32.7627C260.25 32.8826 260.13 33.0158 260.05 33.1624C259.97 33.309 259.94 33.4722 259.94 33.6521C259.94 33.8986 260 34.1118 260.12 34.2916C260.24 34.4649 260.42 34.5981 260.65 34.6914C260.87 34.7846 261.14 34.8313 261.45 34.8313Z" fill="#393737"/>
<path fill-rule="evenodd" clip-rule="evenodd" d="M8.98999 8.5626H26.2V25.5759L26.42 25.7087L34.89 17.2538L34.84 0.0501995L17.5699 0L8.98999 8.5626ZM0.449951 17.2967V34.325L0.76001 34.4444H17.85L26.2 26.1302V25.7844H9.16003L9.14001 9.6944L9.13 8.8579L8.89001 8.8649L0.449951 17.2967Z" fill="#393737"/>
</svg>
