<svg width="206" height="35" viewBox="0 0 206 35" fill="none" xmlns="http://www.w3.org/2000/svg">
<path fill-rule="evenodd" clip-rule="evenodd" d="M148.99 0.585968L147.783 0.653866L146.769 0.857067L145.755 1.06017L144.741 1.39007L143.727 1.71987L142.665 2.22956L141.603 2.73936L140.734 3.30157L139.864 3.86377L138.99 4.57927L138.117 5.29486L137.445 6.02907L136.774 6.76327L136.265 7.42927L135.755 8.09527L135.206 9.01117L134.658 9.92717L134.187 11.0191L133.715 12.111L133.395 13.3454L133.074 14.5797L132.957 15.5034L132.84 16.4271L132.887 18.2095L132.935 19.9918L133.148 21.0333L133.361 22.0748L133.699 23.0747L134.037 24.0746L134.553 25.1261L135.069 26.1778L135.746 27.1675L136.424 28.1573L137.157 28.9857L137.89 29.8141L138.732 30.5357L139.575 31.2574L140.589 31.9237L141.603 32.59L142.665 33.0959L143.727 33.6019L144.748 33.9356L145.769 34.2694L146.873 34.4891L147.976 34.7088L150.294 34.7055L152.611 34.7022L153.625 34.4867L154.639 34.2713L155.759 33.9048L156.879 33.5384L157.94 33.0149L159.001 32.4916L160.007 31.8271L161.013 31.1626L161.797 30.4671L162.581 29.7715L163.224 29.0594L163.866 28.3472L164.488 27.4927L165.11 26.6382L165.637 25.6412L166.164 24.6442L166.459 23.9107L166.755 23.177L167.039 22.1067L167.324 21.0362L167.451 20.3241L167.578 19.612L167.576 17.6181L167.574 15.6241L167.397 14.6746L167.221 13.7252L166.889 12.6332L166.556 11.5413L165.944 10.2942L165.331 9.04697L164.798 8.25277L164.265 7.45847L163.497 6.55637L162.73 5.65417L162.016 5.02857L161.302 4.40297L160.512 3.82877L159.721 3.25457L158.87 2.77666L158.019 2.29877L157.23 1.95867L156.441 1.61856L155.569 1.33837L154.697 1.05817L153.654 0.860065L152.611 0.661865L151.694 0.614567L150.777 0.567165L150.487 0.542667L150.197 0.518066L148.99 0.585968ZM11.675 0.680565L10.762 0.760265L9.98499 0.909866L9.20901 1.05957L8.09799 1.39597L6.98801 1.73236L5.92599 2.22956L4.86301 2.72697L4.18701 3.13557L3.51099 3.54427L2.836 4.04407L2.16 4.54397L1.5 5.13837L0.839996 5.73277L3.23001 8.08377L5.62 10.4347L6.23801 9.91917L6.85599 9.40367L7.405 9.03757L7.95401 8.67167L8.45901 8.42057L8.96399 8.16936L9.45401 7.97927L9.944 7.78926L10.687 7.60107L11.43 7.41267L12.372 7.31757L13.313 7.22256L14.239 7.31697L15.166 7.41146L15.937 7.60507L16.709 7.79877L17.555 8.15757L18.401 8.51637L19.116 8.98227L19.831 9.44827L20.669 10.24L21.506 11.0317L22.003 11.7391L22.501 12.4465L22.923 13.3231L23.345 14.1999L23.608 15.1494L23.871 16.0989V17.713V19.3271L23.613 20.2766L23.355 21.2261L22.834 22.2705L22.312 23.315L21.831 23.9379L21.349 24.5609L20.694 25.1956L20.039 25.8303L19.329 26.3126L18.62 26.7949L17.825 27.1612L17.03 27.5276L16.192 27.7664L15.354 28.005L14.334 28.1179L13.313 28.2308L12.293 28.1179L11.272 28.005L10.434 27.7694L9.595 27.5337L8.78299 27.1539L7.97 26.7742L7.33401 26.3567L6.698 25.9393L6.159 25.4648L5.621 24.9902L3.21399 27.3637L0.808014 29.7372L1.29001 30.1667L1.77301 30.5964L2.401 31.0986L3.02899 31.6008L3.87701 32.1423L4.72601 32.6839L5.80899 33.1859L6.89099 33.6878L7.80899 33.9837L8.72601 34.2794L9.64401 34.47L10.561 34.6605L11.929 34.7743L13.297 34.8882L14.633 34.7737L15.969 34.6592L16.886 34.4693L17.803 34.2794L18.721 33.9837L19.638 33.6878L20.727 33.1829L21.817 32.6779L22.755 32.073L23.694 31.468L24.583 30.7348L25.471 30.0015L26.02 29.4117L26.569 28.822L27.273 27.8996L27.976 26.9772L28.416 26.2079L28.856 25.4385L29.233 24.6141L29.61 23.7897L29.904 22.8833L30.199 21.977L30.423 20.8894L30.646 19.8019L30.642 17.6655L30.638 15.5292L30.38 14.3368L30.122 13.1444L29.773 12.153L29.424 11.1615L28.895 10.1171L28.366 9.07267L27.749 8.17067L27.131 7.26857L26.351 6.39067L25.572 5.51257L24.778 4.84157L23.984 4.17047L22.922 3.46987L21.859 2.76927L20.845 2.29387L19.831 1.81847L18.817 1.48677L17.803 1.15517L16.833 0.962067L15.863 0.768768L14.757 0.672665L13.651 0.576366L13.12 0.588566L12.589 0.600868L11.675 0.680565ZM34.075 3.89757V7.22116H38.469H42.862L42.886 21.0599L42.911 34.8987L46.266 34.9237L49.622 34.9486L49.646 21.1086L49.671 7.26857L54.09 7.24397L58.509 7.21926L58.484 3.92076L58.458 0.622166L46.267 0.598068L34.075 0.573967V3.89757ZM71.862 0.739765L71.8 0.907066L65.338 17.2857L58.876 33.6644L58.647 34.2578L58.419 34.8512L62.06 34.8502L65.701 34.849L67.018 31.5032L68.335 28.1573L73.101 28.1099L77.867 28.0624L79.126 24.8631L80.385 21.6638L80.435 21.6138L80.486 21.5638L83.099 28.1838L85.713 34.8038L89.354 34.8286L92.995 34.8535L92.939 34.6862L92.884 34.5189L86.194 17.5706L79.504 0.622166L75.714 0.597366L71.924 0.572567L71.862 0.739765ZM109.453 1.45187L109.106 2.33127L102.7 18.5675L96.293 34.8038L99.87 34.8286L103.447 34.8536L103.513 34.7812L103.579 34.7088L108.532 22.1518L113.485 9.59487L113.541 9.59697L113.598 9.59917L118.571 22.224L123.545 34.8489L127.189 34.8501L130.834 34.8512L130.691 34.4952L130.549 34.1391L123.938 17.3807L117.327 0.622166L113.563 0.597366L109.8 0.572567L109.453 1.45187ZM174.387 17.713V34.8512H177.767H181.147V27.968V21.0849L188.362 21.0605L195.577 21.0362L196.854 17.8079L198.131 14.5797L198.137 14.461L198.143 14.3423H189.645H181.147V7.45847V0.574768H177.767H174.387V17.713ZM198.239 17.713V34.8512H201.667H205.096V17.713V0.574768H201.667H198.239V17.713ZM152.643 7.50237L153.447 7.69657L154.188 7.99467L154.929 8.29277L155.659 8.71387L156.389 9.13497L157.109 9.73027L157.828 10.3257L158.374 10.9816L158.92 11.6374L159.314 12.2747L159.707 12.9121L160.047 13.7196L160.387 14.5272L160.599 15.3605L160.811 16.1938L160.806 17.713L160.801 19.2322L160.555 20.1412L160.308 21.0503L159.996 21.7875L159.684 22.5249L159.131 23.353L158.578 24.1811L157.97 24.82L157.362 25.4589L156.594 26.0281L155.825 26.5973L154.844 27.0688L153.862 27.5402L152.899 27.7966L151.935 28.0531L150.197 28.0504L148.459 28.0478L147.703 27.8434L146.947 27.639L146.143 27.317L145.34 26.995L144.485 26.4478L143.631 25.9006L142.824 25.13L142.019 24.3594L141.394 23.4393L140.77 22.5193L140.436 21.7141L140.102 20.909L139.894 20.1655L139.686 19.4221L139.683 17.713L139.681 16.0039L139.942 15.0566L140.202 14.1094L140.682 13.1442L141.161 12.179L141.74 11.4236L142.319 10.6682L142.969 10.0706L143.619 9.47287L144.461 8.92907L145.303 8.38527L146.018 8.09247L146.734 7.79977L147.46 7.60397L148.186 7.40807L148.757 7.31956L149.328 7.23107L150.583 7.26966L151.839 7.30817L152.643 7.50237ZM78.092 15.4995L80.423 21.4041L80.392 21.4347L80.361 21.4653L75.675 21.4407L70.989 21.416L73.318 15.5076L75.647 9.59927L75.704 9.59706L75.76 9.59487L78.092 15.4995ZM8.92899 14.4213L8.88 14.5002L8.939 17.792L8.99799 21.0837L14.705 21.0835L20.411 21.0833L21.69 17.8315L22.97 14.5797V14.461V14.3423H15.974H8.979L8.92899 14.4213Z" fill="#393737"/>
</svg>
