<svg width="77" height="70" viewBox="0 0 77 70" fill="none" xmlns="http://www.w3.org/2000/svg">
<path d="M17.1028 18.238C12.6892 18.238 9.10321 15.0838 9.10321 11.2017V7.03633C9.10321 3.1542 12.6892 0 17.1028 0C21.5164 0 25.1024 3.1542 25.1024 7.03633V11.2017C25.1024 15.0838 21.5164 18.238 17.1028 18.238ZM17.1028 2.02195C13.9765 2.02195 11.402 4.24605 11.402 7.03633V11.2017C11.402 13.9515 13.9305 16.216 17.1028 16.216C20.2751 16.216 22.8037 13.9919 22.8037 11.2017V7.03633C22.8037 4.28649 20.2751 2.02195 17.1028 2.02195Z" fill="#1A1A1A"/>
<path d="M26.1141 69.9999H8.45982C7.81617 69.9999 7.31044 69.555 7.31044 68.9889V49.659C1.88538 49.2141 0.137925 45.4936 0 43.4312V31.2995C0 24.7889 6.02294 19.4917 13.4249 19.4917H48.0903C48.4121 19.4917 48.7337 19.6128 48.9636 19.815C49.1934 20.0172 49.2857 20.3006 49.2397 20.5836C48.8259 23.657 46.2054 29.5205 38.9413 29.5205H27.2174V68.9484C27.2174 69.5146 26.7117 69.9594 26.0681 69.9594L26.1141 69.9999ZM9.6092 67.9779H24.9647V28.55C24.9647 28.2669 25.1024 28.0241 25.2863 27.8219C25.4702 27.6197 25.7923 27.539 26.1141 27.539H38.9873C44.3204 27.539 46.1591 23.5356 46.7108 21.5136H13.4249C7.26426 21.5136 2.29875 25.9212 2.29875 31.2995V43.3508C2.29875 43.7147 2.75891 47.1113 7.31044 47.5965V32.1896C7.31044 31.6234 7.81617 31.1786 8.45982 31.1786C9.10347 31.1786 9.6092 31.6234 9.6092 32.1896V67.9374V67.9779Z" fill="#1A1A1A"/>
<path d="M17.104 69.9992C16.4604 69.9992 15.9547 69.5544 15.9547 68.9883V47.394C15.9547 46.8279 16.4604 46.3831 17.104 46.3831C17.7477 46.3831 18.2534 46.8279 18.2534 47.394V68.9883C18.2534 69.5544 17.7477 69.9992 17.104 69.9992Z" fill="#1A1A1A"/>
<path d="M75.214 43.8765H34.3426C33.699 43.8765 33.1933 43.4317 33.1933 42.8655C33.1933 42.2994 33.699 41.8545 34.3426 41.8545H74.0646V10.1096H28.9633C28.3197 10.1096 27.814 9.66476 27.814 9.09862C27.814 8.53247 28.3197 8.08765 28.9633 8.08765H75.214C75.8576 8.08765 76.3634 8.53247 76.3634 9.09862V42.8655C76.3634 43.4317 75.8576 43.8765 75.214 43.8765Z" fill="#1A1A1A"/>
<path d="M48.1371 70.0001C47.4935 70.0001 46.9877 69.5553 46.9877 68.9891V42.9062C46.9877 42.3401 47.4935 41.8953 48.1371 41.8953C48.7808 41.8953 49.2865 42.3401 49.2865 42.9062V68.9891C49.2865 69.5553 48.7808 70.0001 48.1371 70.0001Z" fill="#1A1A1A"/>
<path d="M59.5371 70.0001C59.0773 70.0001 58.6176 69.7573 58.4797 69.353L48.1353 45.6963L37.7909 69.353C37.5611 69.8787 36.9171 70.1213 36.3194 69.9192C35.7217 69.717 35.4458 69.151 35.6757 68.6253L47.0774 42.5419C47.2613 42.1375 47.6756 41.8953 48.1353 41.8953C48.5951 41.8953 49.0547 42.1375 49.1927 42.5419L60.5944 68.6253C60.8243 69.151 60.5483 69.717 59.9507 69.9192C59.8127 69.9596 59.675 70.0001 59.5371 70.0001Z" fill="#1A1A1A"/>
</svg>
