<svg width="73" height="70" viewBox="0 0 73 70" fill="none" xmlns="http://www.w3.org/2000/svg">
<path d="M24.7584 33.1651L10.0338 26.6155L10.4982 25.5472C14.3071 16.9539 22.8539 11.4268 32.2832 11.4268C33.8161 11.4268 35.3026 11.5659 36.7891 11.8446L37.9503 12.0766L34.9309 27.9162L33.7697 27.6843C33.3052 27.5914 32.7942 27.5448 32.3297 27.5448C29.264 27.5448 26.5234 29.3563 25.2692 32.1433L24.8049 33.2116L24.7584 33.1651ZM13.0993 25.4542L23.6436 30.1457C25.5481 26.8942 29.2177 24.9901 33.0266 25.2688L35.2096 13.9812C34.2342 13.8418 33.2587 13.7958 32.2832 13.7958C24.2009 13.7958 16.7689 18.3474 13.1458 25.5007L13.0993 25.4542Z" fill="#1A1A1A"/>
<path d="M32.8874 61.9653H31.7261C18.5807 61.9653 7.89719 51.2817 7.89719 38.1364C7.89719 34.7455 8.59396 31.4936 9.94101 28.4279L10.4057 27.3596L25.1303 33.9092L24.6656 34.9775C24.2475 35.9529 24.0155 37.0215 24.0155 38.1364C24.0155 42.4098 27.4527 45.8467 31.7261 45.8467H32.8874V61.9653ZM11.6131 30.472C10.6841 32.9338 10.2197 35.4887 10.2197 38.1364C10.2197 49.6095 19.231 58.9924 30.5648 59.5963V48.0762C25.5947 47.5188 21.693 43.2458 21.693 38.0899C21.693 37.068 21.8322 36.046 22.1574 35.117L11.6131 30.4255V30.472Z" fill="#1A1A1A"/>
<path d="M35.1621 62.9872H34.0008V46.8692H35.1621C39.4355 46.8692 42.8729 43.4317 42.8729 39.1583V37.9971H58.991V39.1583C58.991 52.3037 48.3074 62.9872 35.1621 62.9872ZM36.3233 49.0987V60.6182C47.2855 60.0144 56.0646 51.2353 56.622 40.3196H45.1024C44.5915 44.9181 40.9218 48.5878 36.2768 49.1452L36.3233 49.0987Z" fill="#1A1A1A"/>
<path d="M33.5729 24.1774L32.1277 25.6226L33.6713 27.1662L35.1165 25.721L33.5729 24.1774Z" fill="#1A1A1A"/>
<path d="M35.2272 15.9534L21.268 29.9126L22.812 31.4566L36.7712 17.4974L35.2272 15.9534Z" fill="#1A1A1A"/>
<path d="M32.81 11.7886L16.716 27.8826L18.2597 29.4262L34.3537 13.3322L32.81 11.7886Z" fill="#1A1A1A"/>
<path d="M25.8807 12.1656L12.1186 25.9277L13.6622 27.4714L27.4243 13.7092L25.8807 12.1656Z" fill="#1A1A1A"/>
<path d="M55.5733 46.7551L42.433 59.8909L43.9763 61.4348L57.1167 48.299L55.5733 46.7551Z" fill="#1A1A1A"/>
<path d="M57.0217 38.3607L34.3585 61.0239L35.9021 62.5676L58.5654 39.9043L57.0217 38.3607Z" fill="#1A1A1A"/>
<path d="M50.451 38.5458L34.3542 54.637L35.8976 56.1809L51.9944 40.0897L50.451 38.5458Z" fill="#1A1A1A"/>
<path d="M43.9276 38.3849L43.1065 39.2061L44.6501 40.7497L45.4713 39.9286L43.9276 38.3849Z" fill="#1A1A1A"/>
<path d="M35.4141 46.535L34.495 47.4551L36.0395 48.9979L36.9585 48.0779L35.4141 46.535Z" fill="#1A1A1A"/>
<path d="M63.7752 36.0914H47.6569V34.9301C47.6569 33.3508 47.1924 31.8182 46.2634 30.5176L45.6131 29.5417L58.8515 20.3447L59.5016 21.2741C62.2886 25.2688 63.7752 29.9599 63.7752 34.8836V36.0449V36.0914ZM49.9329 33.7689H61.4527C61.2669 30.1458 60.1521 26.6623 58.2941 23.5966L48.8181 30.1921C49.422 31.3069 49.7935 32.5147 49.9329 33.7689Z" fill="#1A1A1A"/>
<path d="M43.3388 28.9378L42.6884 27.9626C41.5272 26.2904 39.8086 25.1759 37.8112 24.8043L36.65 24.5718L39.6693 8.73218L40.8306 8.96465C46.962 10.1259 52.3037 13.6096 55.9269 18.7655L56.5769 19.7408L43.3388 28.9378ZM39.3441 22.8067C41.1092 23.3641 42.642 24.3396 43.8497 25.7331L53.3257 19.1834C50.3529 15.3745 46.2186 12.6803 41.5272 11.5191L39.3441 22.8067Z" fill="#1A1A1A"/>
<path d="M51.7926 10.5907L49.7023 9.61548L54.2081 0H62.6155V2.3225H55.6945L51.7926 10.5907Z" fill="#1A1A1A"/>
<path d="M64.9366 26.5233L63.4037 24.7582L67.8165 20.856H72.6007V23.1785H68.699L64.9366 26.5233Z" fill="#1A1A1A"/>
<path d="M70.744 63.637H60.1532L54.1613 57.6448L55.7869 55.9727L61.1288 61.3145H70.744V63.637Z" fill="#1A1A1A"/>
<path d="M12.1699 70.0001H0V67.6776H11.1946L17.8834 60.9885L19.5091 62.6607L12.1699 70.0001Z" fill="#1A1A1A"/>
<path d="M17.7912 13.5636L9.89467 9.19702H0.929844V6.87451H10.4985L18.906 11.5195L17.7912 13.5636Z" fill="#1A1A1A"/>
</svg>
