<svg width="70" height="70" viewBox="0 0 70 70" fill="none" xmlns="http://www.w3.org/2000/svg">
<path d="M35.0001 70C33.6494 70 32.378 69.4836 31.4245 68.5301L1.47002 38.5753C0.516561 37.6219 0 36.3505 0 34.9998C0 33.649 0.516561 32.3781 1.47002 31.4247L31.4245 1.4699C32.378 0.516439 33.6494 0 35.0001 0C36.3509 0 37.6221 0.516439 38.5756 1.4699L68.5301 31.4247C69.4836 32.3781 70.0001 33.649 70.0001 34.9998C70.0001 36.3505 69.4836 37.6219 68.5301 38.5753L38.5756 68.5301C37.6221 69.4836 36.3509 70 35.0001 70ZM35.0001 1.90685C34.1658 1.90685 33.4109 2.22459 32.815 2.8205L2.86039 32.7753C1.66856 33.9671 1.66856 35.9534 2.86039 37.1452L32.815 67.1C33.9671 68.2521 36.033 68.2521 37.1851 67.1L67.1397 37.1452C68.3316 35.9534 68.3316 33.9671 67.1397 32.7753L37.1851 2.8205C36.5892 2.22459 35.8344 1.90685 35.0001 1.90685Z" fill="#1A1A1A"/>
<path d="M29.0415 41.8722C28.8031 41.8722 28.5249 41.793 28.3263 41.5943C27.929 41.1971 27.929 40.5615 28.3263 40.204L40.3241 28.2062C40.7214 27.8089 41.3569 27.8089 41.7145 28.2062C42.072 28.6034 42.1118 29.239 41.7145 29.5965L29.7168 41.5943C29.7168 41.5943 29.2798 41.8722 29.0017 41.8722H29.0415Z" fill="#1A1A1A"/>
<path d="M17.1233 53.791C16.885 53.791 16.6068 53.7118 16.4082 53.5132C16.0109 53.1159 16.0109 52.4803 16.4082 52.1228L21.7316 46.7994C22.1289 46.4021 22.7646 46.4021 23.1221 46.7994C23.4797 47.1967 23.5194 47.8322 23.1221 48.1898L17.7986 53.5132C17.7986 53.5132 17.3617 53.791 17.0836 53.791H17.1233Z" fill="#1A1A1A"/>
<path d="M46.8394 24.0745C46.6011 24.0745 46.323 23.9952 46.1244 23.7966C45.7271 23.3993 45.7271 22.7638 46.1244 22.4062L52.1629 16.3675C52.5602 15.9703 53.1959 15.9703 53.5534 16.3675C53.911 16.7648 53.9507 17.4004 53.5534 17.7579L47.5149 23.7966C47.5149 23.7966 47.0779 24.0745 46.7998 24.0745H46.8394Z" fill="#1A1A1A"/>
<path d="M40.641 41.5548C40.4027 41.5548 40.1246 41.4756 39.926 41.2769L27.9679 29.3189C27.5706 28.9216 27.5706 28.2861 27.9679 27.9285C28.3652 27.571 29.0009 27.5312 29.3584 27.9285L41.3164 39.8861C41.7137 40.2834 41.7137 40.9194 41.3164 41.2769C41.1178 41.4756 40.8793 41.5548 40.6013 41.5548H40.641Z" fill="#1A1A1A"/>
<path d="M52.8768 53.791C52.6384 53.791 52.3602 53.7117 52.1616 53.5131L46.7587 48.1102C46.3614 47.7129 46.3614 47.0774 46.7587 46.7198C47.156 46.3226 47.7917 46.3226 48.1492 46.7198L53.5521 52.1227C53.9494 52.52 53.9494 53.1555 53.5521 53.5131C53.3535 53.7117 53.1151 53.791 52.837 53.791H52.8768Z" fill="#1A1A1A"/>
<path d="M22.6449 23.5587C22.4065 23.5587 22.1284 23.4795 21.9298 23.2809L16.4474 17.7984C16.0501 17.4012 16.0501 16.7656 16.4474 16.4081C16.8446 16.0108 17.4803 16.0108 17.8379 16.4081L23.3203 21.8905C23.7176 22.2878 23.7176 22.9233 23.3203 23.2809C23.1216 23.4795 22.8832 23.5587 22.6051 23.5587H22.6449Z" fill="#1A1A1A"/>
<path d="M39.7272 29.9943C37.5422 29.9943 35.4764 29.1601 33.8873 27.571C32.338 26.0216 31.4639 23.9559 31.4639 21.7312C31.4639 19.5064 32.338 17.4804 33.8873 15.8913C35.4367 14.342 37.5024 13.468 39.7272 13.468C41.9122 13.468 43.978 14.342 45.5671 15.8913C47.4741 17.7983 48.3481 20.5394 47.8316 23.2409C47.7125 23.797 47.196 24.1147 46.6795 24.0352C46.1233 23.916 45.8056 23.3999 45.885 22.8834C46.2823 20.8573 45.607 18.7517 44.1768 17.3215C42.9849 16.1296 41.4355 15.4942 39.767 15.4942C38.0984 15.4942 36.5093 16.1296 35.3572 17.3215C34.1654 18.5133 33.5297 20.0626 33.5297 21.7312C33.5297 23.3997 34.1654 24.9888 35.3572 26.1409C36.8272 27.6108 38.893 28.2467 40.9191 27.8494C41.4753 27.7699 41.9918 28.0876 42.0712 28.6437C42.1904 29.1999 41.8328 29.7165 41.2766 29.796C40.7602 29.8755 40.2834 29.9546 39.767 29.9546L39.7272 29.9943Z" fill="#1A1A1A"/>
<path d="M21.5321 37.9389C19.347 37.9389 17.2812 37.0649 15.6921 35.5155C14.1427 33.9662 13.2688 31.9004 13.2688 29.6757C13.2688 27.451 14.1427 25.425 15.6921 23.8359C17.5196 22.0084 20.1813 21.1341 22.7636 21.5314C23.3198 21.6108 23.6773 22.1274 23.5978 22.6438C23.5184 23.2 23.0019 23.5579 22.4855 23.4784C20.5388 23.1606 18.5128 23.8358 17.1223 25.2262C15.9305 26.4181 15.2948 27.9674 15.2948 29.6359C15.2948 31.3045 15.9305 32.8935 17.1223 34.0456C18.3142 35.2375 19.8635 35.8734 21.5321 35.8734C23.2006 35.8734 24.7898 35.2375 25.9419 34.0456C27.3323 32.6552 28.0076 30.6292 27.6898 28.6825C27.6103 28.1263 27.968 27.6495 28.5241 27.57C29.0803 27.4906 29.5571 27.8484 29.6365 28.4046C30.0338 30.9869 29.1597 33.6483 27.3322 35.4758C25.7829 37.0252 23.717 37.8991 21.4923 37.8991L21.5321 37.9389Z" fill="#1A1A1A"/>
<path d="M29.6764 56.3732C27.4914 56.3732 25.4256 55.4993 23.8365 53.9499C22.1282 52.2416 21.2543 49.8579 21.4529 47.4345C21.4927 46.8784 21.9693 46.4812 22.5255 46.5209C23.0817 46.5606 23.479 47.0374 23.4393 47.5936C23.2804 49.4211 23.9557 51.2485 25.227 52.5596C26.4188 53.7514 27.9682 54.3869 29.6368 54.3869C31.3054 54.3869 32.8944 53.7514 34.0465 52.5596C35.2383 51.3677 35.8741 49.8184 35.8741 48.1498C35.8741 46.4813 35.2383 44.8922 34.0465 43.7401C32.7355 42.4291 30.9478 41.7932 29.0806 41.9123C28.5244 41.9521 28.0477 41.5549 28.008 40.9987C27.9682 40.4425 28.3655 39.9657 28.9217 39.926C31.3451 39.7273 33.7287 40.6017 35.437 42.31C36.9864 43.8594 37.8604 45.9251 37.8604 48.1498C37.8604 50.3746 36.9864 52.4006 35.437 53.9897C33.8876 55.5391 31.8218 56.413 29.597 56.413L29.6764 56.3732Z" fill="#1A1A1A"/>
<path d="M47.8708 48.3876C47.8708 48.3876 47.553 48.3876 47.3941 48.3876C46.8379 48.3876 46.4406 47.8711 46.4803 47.3546C46.4803 46.7985 46.9968 46.4013 47.5132 46.441C49.301 46.5602 51.0489 45.885 52.2805 44.6137C53.4723 43.4219 54.108 41.8725 54.108 40.204C54.108 38.5354 53.4723 36.9464 52.2805 35.7943C49.8571 33.3709 45.8844 33.3709 43.4213 35.7943C42.15 37.0656 41.5143 38.8134 41.5937 40.5614C41.5937 41.1176 41.1965 41.5943 40.6801 41.5943C40.1636 41.5943 39.6471 41.1971 39.6471 40.6807C39.5279 38.3368 40.402 36.0327 42.0308 34.3641C45.2487 31.1462 50.453 31.1462 53.671 34.3641C55.2203 35.9135 56.0944 37.9792 56.0944 40.204C56.0944 42.389 55.2203 44.4547 53.671 46.0438C52.1216 47.5932 50.016 48.4671 47.831 48.4671L47.8708 48.3876Z" fill="#1A1A1A"/>
</svg>
