<svg width="255" height="32" viewBox="0 0 255 32" fill="none" xmlns="http://www.w3.org/2000/svg">
<path d="M4.34003 0.400898L4.74902 0.243595L5.12201 0.233398L5.73102 0.481697L13.799 8.4007L14.114 8.9977V9.4116L13.892 9.9295L9.854 13.8723L9.57501 13.9817L8.87201 13.993L8.42999 13.7626L0.219971 5.6648L0.132996 5.2625L0.0949707 5.0211L0.210022 4.4567L4.34003 0.400898Z" fill="#393737"/>
<path d="M15.3 11.1879L15.873 11.0288L16.363 11.1137L16.854 11.4081L20.643 15.1598L20.758 15.7633L20.648 16.3668L5.64899 31.1215L5.02002 31.2335L4.37598 31.0439L0.45697 27.2042L0.291992 26.7766V26.1354L0.526001 25.7008L15.3 11.1879Z" fill="#393737"/>
<path fill-rule="evenodd" clip-rule="evenodd" d="M73.21 1.52354L71.982 1.78574L70.674 2.18584L69.347 2.78284L67.89 3.70864L66.156 5.39504L65.288 6.65714L64.659 7.96454L64.175 9.40934L64.125 10.0099L65.844 10.2699L70.225 10.9591L70.276 10.8949L71.11 9.22104L71.938 8.27524L72.801 7.57814L74.11 6.96564L75.01 6.75224L77.793 6.77564L79.021 7.03294L80.21 7.58034L81.111 8.41044L81.603 9.24724L81.932 10.1775L82.171 11.6123L82.172 12.768L74.765 12.7727L72.719 12.9186L70.918 13.1781L69.389 13.5733L68.545 13.8947L67.644 14.3136L66.214 15.2421L65.002 16.2714L64.08 17.4651L63.431 18.7861L63.091 20.0614L62.997 22.3055L63.196 23.6302L63.528 24.6845L64.033 25.7208L64.816 26.862L65.926 27.9328L66.908 28.6157L68.239 29.2627L69.521 29.6817L71.082 29.9852L73.783 30.0855L75.826 29.901L77.416 29.5853L79.028 29.0515L80.248 28.4557L81.394 27.7226L82.499 26.6385V29.5069H88.811L88.744 11.2137L88.486 9.77904L88.314 9.04274L87.882 7.70654L87.189 6.26094L86.367 5.07614L85.568 4.20664L84.933 3.64144L84.013 2.96264L82.458 2.18214L80.821 1.69254L79.348 1.42914L74.519 1.38184L73.21 1.52354ZM41.99 1.75704L40.338 2.17244L39.271 2.56374L37.836 3.26294L36.299 4.26994L34.698 5.78234L33.635 7.14864L32.583 9.22104L32.311 10.0181L31.997 11.2137L31.758 13.1267V18.3875L31.999 20.2208L32.311 21.4165L32.583 22.2136L33.634 24.286L34.619 25.5613L35.807 26.7416L37.005 27.6736L38.422 28.4888L39.423 28.9355L40.863 29.4305L42.846 29.8436L47.428 29.9241L49.148 29.7283L51.053 29.2641L52.609 28.6478L53.567 28.1375L54.959 27.2378L56.771 25.4816L57.619 24.3657L58.674 22.346L59.191 20.724L59.051 20.6029L57.005 20.3359L54.55 20.0122L52.892 19.7824L52.503 19.7835L52.094 20.854L51.313 22.0255L50.539 22.8313L49.543 23.5244L48.329 24.0842L47.02 24.4199L45.08 24.5078L43.91 24.3123L42.764 23.991L41.323 23.269L40.007 22.0636L39.349 21.1195L38.866 20.0824L38.508 18.7861L38.509 12.5688L38.886 11.2934L39.531 9.98774L40.5 8.82244L41.333 8.18484L42.341 7.58864L43.255 7.25394L44.728 6.93584L47.02 7.00784L48.329 7.35524L49.543 7.91024L50.539 8.60394L51.39 9.48154L52.048 10.4739L52.575 11.7274L52.913 11.6534L58.82 10.5362H59.11L58.996 9.93844L58.456 8.57624L57.961 7.62684L57.064 6.28804L56.025 5.15354L54.838 4.11964L53.404 3.18934L51.931 2.49814L50.476 2.00414L48.493 1.58964L43.583 1.53714L41.99 1.75704ZM146.542 1.69214L144.822 2.06944L143.186 2.66034L141.805 3.36844L140.812 4.02304L139.455 5.13884L138.581 6.11234L137.675 7.34574L136.773 9.14134L136.429 10.1219L136.023 11.8514L135.852 15.7173L136.023 19.5832L136.429 21.3127L136.777 22.2933L137.56 23.9082L138.262 24.9237L139.3 26.1447L140.239 26.9839L141.518 27.9097L142.883 28.6344L144.484 29.2691L146.459 29.7355L147.932 29.905L152.598 29.9024L154.351 29.675L156.035 29.2441L157.544 28.6456L158.93 27.9097L160.291 26.9301L161.764 25.4753L162.697 24.1998L163.43 22.8512L163.929 21.6198L164.265 20.3803L164.506 18.827V12.6076L164.265 11.0543L163.941 9.85874L163.51 8.74274L162.76 7.32734L161.865 6.11294L161.109 5.24854L159.766 4.10284L158.49 3.27194L156.853 2.49624L155.399 2.00414L153.416 1.58734L147.687 1.54174L146.542 1.69214ZM210.133 1.68514L208.511 2.02024L206.941 2.54174L205.386 3.30404L204.404 3.94714L203.146 4.96234L202.406 5.76314L201.521 6.90944L200.695 8.31294L200.035 9.93844L199.714 11.0543L199.545 11.8514L199.368 12.8876L199.215 15.629L199.375 18.918L199.77 20.8075L200.343 22.4768L201.028 23.8077L201.767 24.9237L202.712 26.0495L204.054 27.2793L205.691 28.3305L207.187 29.0067L208.186 29.3392L209.451 29.662L211.279 29.9127H215.044L216.903 29.6578L218.747 29.2041L220.282 28.614L221.509 27.97L222.983 26.9978L224.708 25.3222L225.737 23.819L226.191 22.9309L226.644 21.7622L226.502 21.6247L225.438 21.4566L222.655 20.9774L220.616 20.6385L220.563 20.7954L219.757 21.9709L218.652 23.0629L217.431 23.8439L216.225 24.3325L214.88 24.6726L211.934 24.6845L211.033 24.4703L210.051 24.1478L209.151 23.6859L208.038 22.8724L207.051 21.7353L206.332 20.3005L206.003 19.0252L206 17.6309L227.157 17.5904L227.136 13.2862L226.856 11.4528L226.39 9.69114L225.877 8.42394L225.055 6.90944L223.932 5.46444L222.573 4.19524L221.455 3.41894L219.575 2.49004L217.826 1.94304L216.517 1.69054L215.044 1.53034L211.361 1.54974L210.133 1.68514ZM95.266 29.5069H101.241L101.249 8.74274L102.157 10.9746L102.786 12.5688L105.155 18.547L106.16 21.0976L106.549 22.0541L107.557 24.6048L109.489 29.4671L116.035 29.5087L119.892 19.7426L121.301 16.1557L121.964 14.4818L123.976 9.38044L124.28 8.58334L124.321 29.5069H130.704V1.92634L121.112 1.96754L120.727 2.92404L119.317 6.59064L118.356 9.06164L117.263 11.9311L116.136 14.8405L115.656 16.076L114.154 19.9817L113.668 21.2571L113.242 22.4128H113.124L112.629 21.0976L111.536 18.3078L110.588 15.8368L109 11.7717L107.56 8.02544L106.657 5.71384L105.814 3.56174L105.585 2.92404L105.184 1.96754L95.266 1.92644V29.5069ZM172.212 2.12694L172.114 14.4021L171.961 19.1846L171.797 20.5032L171.525 21.5759L171.105 22.4492L170.348 23.1871L169.403 23.5314L167.902 23.6854L166.306 23.6882V29.5308L171.094 29.4358L172.567 29.1919L173.549 28.9442L175.056 28.2199L176.204 27.1849L176.934 26.0396L177.448 24.7731L177.829 23.1701L178.002 21.8947L178.166 19.5832L178.341 12.8876L178.46 7.78624L187.34 7.74504V29.5069H194.133V1.92764H172.276L172.212 2.12694ZM228.753 7.74514L238.205 7.78624L238.247 29.5069H244.957L244.998 7.78624L254.451 7.74514V1.92764H228.753V7.74514ZM216.271 7.12064L217.745 7.82264L218.759 8.62374L219.529 9.53984L220.157 10.8152L220.484 12.0905L220.486 12.4492H206V12.1559L206.33 10.8949L206.877 9.77904L207.649 8.78474L208.496 8.08474L209.437 7.50254L210.624 7.03984L211.77 6.79424L212.425 6.72544L214.88 6.78384L216.271 7.12064ZM152.516 7.17054L153.825 7.59584L155.053 8.26454L156.628 9.78294L157.453 11.4528L157.71 12.4891L157.874 14.0035V17.431L157.71 18.9455L157.453 19.9817L156.63 21.6556L155.053 23.1701L153.825 23.8388L152.534 24.2575L151.206 24.485L149.324 24.4846L147.851 24.2511L146.639 23.8488L145.559 23.2718L144.569 22.4912L143.981 21.8055L143.42 20.9382L143.065 20.1881L142.725 19.0252L142.54 15.6355L142.726 12.4094L143.065 11.2465L143.419 10.4963L144.111 9.43924L145.019 8.55464L145.968 7.92834L146.651 7.58994L147.932 7.16904L149.16 6.96564L151.124 6.94994L152.516 7.17054ZM82.155 19.183L81.761 20.506L81.167 21.6556L80.453 22.5595L79.593 23.2701L78.693 23.8168L77.702 24.2411L76.32 24.5785L73.719 24.6664L72.555 24.4658L71.698 24.1558L70.754 23.5407L70.16 22.7715L69.794 21.7821L69.861 20.2208L70.314 19.2643L71.147 18.5015L72.309 17.9654L73.373 17.7131L75.01 17.5407L78.53 17.416L82.347 17.3912L82.155 19.183Z" fill="#393737"/>
</svg>
