<svg width="72" height="70" viewBox="0 0 72 70" fill="none" xmlns="http://www.w3.org/2000/svg">
<path d="M13.3177 52.2821C9.33396 52.2821 6.07092 49.0191 6.07092 45.0353V39.4202C6.07092 35.4364 9.33396 32.1738 13.3177 32.1738C17.3015 32.1738 20.5643 35.4364 20.5643 39.4202V45.0353C20.5643 49.0191 17.3015 52.2821 13.3177 52.2821ZM13.3177 34.0709C10.3584 34.0709 7.96796 36.4608 7.96796 39.4202V45.0353C7.96796 47.9947 10.3584 50.3851 13.3177 50.3851C16.2771 50.3851 18.6673 47.9947 18.6673 45.0353V39.4202C18.6673 36.4608 16.2771 34.0709 13.3177 34.0709Z" fill="#1A1A1A"/>
<path d="M21.095 69.9998H5.23584C2.35234 69.9998 0 67.6475 0 64.764V58.959C0 57.7448 0.720902 56.5689 2.16265 55.4307C3.33881 54.5201 4.70474 53.8371 6.26031 53.4198L11.1546 52.0539C11.6478 51.9022 12.179 52.2054 12.3307 52.6986C12.4825 53.1919 12.179 53.7233 11.6858 53.875L6.79131 55.2408C5.46338 55.6202 4.3253 56.1892 3.37678 56.948C2.42826 57.6689 1.93501 58.4278 1.93501 58.9969V64.802C1.93501 66.6231 3.41472 68.1408 5.27382 68.1408H21.133C22.9542 68.1408 24.4718 66.6611 24.4718 64.802V58.9969C24.4718 58.4278 23.9406 57.7068 23.0301 56.948C22.0815 56.1892 20.9053 55.6202 19.6153 55.2408L14.8347 53.913C14.3415 53.7612 14.038 53.2678 14.1898 52.7366C14.3416 52.2434 14.8727 51.9402 15.3659 52.0919L20.1465 53.4198C21.7021 53.875 23.068 54.5201 24.2442 55.4307C25.6859 56.5689 26.4068 57.7448 26.4068 58.959V64.764C26.4068 67.6475 24.0545 69.9998 21.171 69.9998H21.095Z" fill="#1A1A1A"/>
<path d="M11.4582 53.8763C10.927 53.8763 10.5096 53.459 10.5096 52.9278V51.2962C10.5096 50.765 10.927 50.3477 11.4582 50.3477C11.9893 50.3477 12.4067 50.765 12.4067 51.2962V52.9278C12.4067 53.459 11.9893 53.8763 11.4582 53.8763Z" fill="#1A1A1A"/>
<path d="M14.9871 53.9143C14.4559 53.9143 14.0386 53.497 14.0386 52.9658V51.2962C14.0386 50.765 14.4559 50.3477 14.9871 50.3477C15.5183 50.3477 15.9356 50.765 15.9356 51.2962V52.9658C15.9356 53.497 15.5183 53.9143 14.9871 53.9143Z" fill="#1A1A1A"/>
<path d="M13.1654 60.4394C10.6234 60.4394 8.53674 57.7458 8.53674 54.4449C8.53674 54.0655 8.53682 53.686 8.6127 53.3445C8.68858 52.8133 9.18169 52.472 9.67492 52.5479C10.2061 52.6238 10.5476 53.1166 10.4718 53.6099C10.4338 53.8755 10.3958 54.1414 10.3958 54.4449C10.3958 56.6834 11.648 58.5424 13.1277 58.5424C14.6073 58.5424 15.8593 56.6455 15.8593 54.4449C15.8593 54.1793 15.8592 53.8755 15.7833 53.6099C15.7074 53.0787 16.0869 52.6238 16.5802 52.5479C17.1113 52.472 17.5667 52.8513 17.6426 53.3445C17.6806 53.686 17.7183 54.0655 17.7183 54.4449C17.7183 57.7458 15.6317 60.4394 13.0897 60.4394H13.1654Z" fill="#1A1A1A"/>
<path d="M15.6311 40.4072C14.9482 40.4072 14.2652 40.2555 13.6581 39.9899C12.8993 39.6484 12.4061 39.1174 12.0267 38.738C11.6473 38.3207 11.4197 38.1307 11.0782 38.0549C10.2435 37.8652 9.06729 38.5861 7.70142 40.0279C7.35996 40.4073 6.753 40.4452 6.37359 40.0658C5.99418 39.7244 5.95621 39.1174 6.33561 38.738C8.23265 36.6892 9.93996 35.8543 11.5335 36.1958C12.4441 36.4235 12.9752 36.9545 13.4305 37.4477C13.772 37.7892 14.0377 38.093 14.493 38.2827C15.2518 38.6242 16.4659 38.8519 19.0459 37.3722C19.5012 37.1066 20.0702 37.2582 20.3358 37.7135C20.6013 38.1688 20.4497 38.7378 19.9944 39.0034C18.325 39.9519 16.9212 40.4072 15.6691 40.4072H15.6311Z" fill="#1A1A1A"/>
<path d="M58.0867 52.2821C54.1029 52.2821 50.8401 49.0191 50.8401 45.0353V39.4202C50.8401 35.4364 54.1029 32.1738 58.0867 32.1738C62.0704 32.1738 65.3332 35.4364 65.3332 39.4202V45.0353C65.3332 49.0191 62.0704 52.2821 58.0867 52.2821ZM58.0867 34.0709C55.1273 34.0709 52.7371 36.4608 52.7371 39.4202V45.0353C52.7371 47.9947 55.1273 50.3851 58.0867 50.3851C61.046 50.3851 63.4362 47.9947 63.4362 45.0353V39.4202C63.4362 36.4608 61.046 34.0709 58.0867 34.0709Z" fill="#1A1A1A"/>
<path d="M65.8275 69.9998H49.9683C47.0848 69.9998 44.7324 67.6475 44.7324 64.764V58.959C44.7324 57.7448 45.4533 56.5689 46.8951 55.4307C48.0712 54.5201 49.4372 53.8371 50.9927 53.4198L55.887 52.0539C56.3802 51.9022 56.9114 52.2054 57.0632 52.6986C57.2149 53.1919 56.9115 53.7233 56.4182 53.875L51.524 55.2408C50.196 55.6202 49.0577 56.1892 48.1092 56.948C47.1607 57.6689 46.6674 58.4278 46.6674 58.9969V64.802C46.6674 66.6231 48.1471 68.1408 50.0062 68.1408H65.8654C67.6866 68.1408 69.2042 66.6611 69.2042 64.802V58.9969C69.2042 58.4278 68.673 57.7068 67.7625 56.948C66.814 56.1892 65.6379 55.6202 64.3479 55.2408L59.5674 53.913C59.0741 53.7612 58.7705 53.2678 58.9222 52.7366C59.074 52.2434 59.6054 51.9402 60.0986 52.0919L64.8789 53.4198C66.4345 53.875 67.8004 54.5201 68.9766 55.4307C70.4184 56.5689 71.1393 57.7448 71.1393 58.959V64.764C71.1393 67.6475 68.7869 69.9998 65.9034 69.9998H65.8275Z" fill="#1A1A1A"/>
<path d="M56.1903 53.8763C55.6592 53.8763 55.2418 53.459 55.2418 52.9278V51.2962C55.2418 50.765 55.6592 50.3477 56.1903 50.3477C56.7215 50.3477 57.1389 50.765 57.1389 51.2962V52.9278C57.1389 53.459 56.7215 53.8763 56.1903 53.8763Z" fill="#1A1A1A"/>
<path d="M59.7569 53.9143C59.2257 53.9143 58.8083 53.497 58.8083 52.9658V51.2962C58.8083 50.765 59.2257 50.3477 59.7569 50.3477C60.288 50.3477 60.7054 50.765 60.7054 51.2962V52.9658C60.7054 53.497 60.288 53.9143 59.7569 53.9143Z" fill="#1A1A1A"/>
<path d="M57.8978 60.4394C55.3558 60.4394 53.2689 57.7458 53.2689 54.4449C53.2689 54.0655 53.269 53.7239 53.3449 53.3445C53.4208 52.8133 53.9141 52.472 54.4073 52.5479C54.9385 52.6238 55.2798 53.1166 55.2039 53.6099C55.166 53.8755 55.128 54.1793 55.128 54.4449C55.128 56.6834 56.3801 58.5424 57.8598 58.5424C59.3395 58.5424 60.5915 56.6455 60.5915 54.4449C60.5915 54.1414 60.5916 53.8755 60.5157 53.6099C60.4398 53.0787 60.7812 52.6238 61.3123 52.5479C61.8435 52.472 62.2989 52.8133 62.3748 53.3445C62.4127 53.686 62.4507 54.0655 62.4507 54.4449C62.4507 57.7458 60.3639 60.4394 57.8219 60.4394H57.8978Z" fill="#1A1A1A"/>
<path d="M60.4019 40.4072C59.719 40.4072 59.0362 40.2555 58.4291 39.9899C57.6703 39.6484 57.1769 39.1174 56.7975 38.738C56.4181 38.3207 56.1904 38.1307 55.849 38.0549C55.0143 37.8652 53.8383 38.5861 52.4724 40.0279C52.1309 40.4073 51.5238 40.4452 51.1443 40.0658C50.7649 39.7244 50.727 39.1174 51.1064 38.738C53.0034 36.6892 54.7109 35.8543 56.3045 36.1958C57.215 36.4235 57.7462 36.9545 58.2015 37.4477C58.543 37.7892 58.8084 38.093 59.2637 38.2827C60.0225 38.6242 61.2367 38.8519 63.8166 37.3722C64.2719 37.1066 64.8409 37.2582 65.1065 37.7135C65.3721 38.1688 65.2205 38.7378 64.7652 39.0034C63.0958 39.9519 61.6919 40.4072 60.4399 40.4072H60.4019Z" fill="#1A1A1A"/>
<path d="M43.0995 11.9139H23.8256C23.2944 11.9139 22.8771 11.4965 22.8771 10.9654C22.8771 10.4342 23.2944 10.0168 23.8256 10.0168H43.0995C43.6307 10.0168 44.0481 10.4342 44.0481 10.9654C44.0481 11.4965 43.6307 11.9139 43.0995 11.9139Z" fill="#1A1A1A"/>
<path d="M35.1706 17.6812H23.7884C23.2572 17.6812 22.8398 17.2639 22.8398 16.7327C22.8398 16.2015 23.2572 15.7842 23.7884 15.7842H35.1706C35.7017 15.7842 36.1191 16.2015 36.1191 16.7327C36.1191 17.2639 35.7017 17.6812 35.1706 17.6812Z" fill="#1A1A1A"/>
<path d="M22.271 31.529C22.271 31.529 22.0434 31.5289 21.8917 31.453C21.5502 31.3012 21.3225 30.9599 21.3225 30.5805V23.7889C17.8699 21.2089 15.897 17.5666 15.897 13.8105C15.897 6.22233 23.7507 0 33.4256 0C43.1005 0 50.9542 6.18439 50.9542 13.8105C50.9542 21.4366 43.1005 27.621 33.4256 27.621C31.3388 27.621 29.3279 27.3555 27.3929 26.7864L22.9159 31.2636C22.9159 31.2636 22.4986 31.529 22.233 31.529H22.271ZM33.4635 1.93501C24.851 1.93501 17.832 7.28471 17.832 13.8485C17.832 17.1493 19.6532 20.2986 22.8402 22.575C23.1058 22.7647 23.2575 23.0301 23.2575 23.3336V28.3041L26.5203 25.0413C26.7859 24.7757 27.1274 24.6996 27.4688 24.8134C29.3659 25.4204 31.4148 25.7239 33.5015 25.7239C42.1141 25.7239 49.1331 20.3742 49.1331 13.8105C49.1331 7.24673 42.1141 1.89704 33.5015 1.89704L33.4635 1.93501Z" fill="#1A1A1A"/>
<path d="M49.0567 36.8406C48.829 36.8406 48.5635 36.7265 48.3738 36.5748L44.8073 33.0086C43.2518 33.4639 41.6202 33.6533 39.9508 33.6533C35.1703 33.6533 30.7314 31.7945 28.0376 28.7213C27.6961 28.3418 27.7339 27.7349 28.1133 27.3934C28.4927 27.052 29.0999 27.09 29.4414 27.4694C31.7937 30.1632 35.7017 31.7562 39.9131 31.7562C41.5825 31.7562 43.2138 31.4909 44.7694 31.0356C45.1108 30.9218 45.4902 31.0358 45.7179 31.2634L48.0702 33.6158V29.9731C48.0702 29.6696 48.2219 29.3663 48.4875 29.2145C51.0295 27.4313 52.5094 24.889 52.5094 22.2711C52.5094 20.5258 51.8642 18.8187 50.6501 17.3011C50.3087 16.8837 50.3847 16.3147 50.802 15.9732C51.2194 15.6318 51.7884 15.7073 52.1299 16.1247C53.6096 17.9458 54.4065 20.0705 54.4065 22.2711C54.4065 25.3822 52.8128 28.3417 50.0052 30.4664V35.8921C50.0052 36.2715 49.7775 36.6129 49.436 36.7647C49.3222 36.8026 49.2084 36.8406 49.0567 36.8406Z" fill="#1A1A1A"/>
</svg>
