<svg xmlns="http://www.w3.org/2000/svg">
    <symbol id="vk" width="34" height="34" viewBox="0 0 34 34" xmlns="http://www.w3.org/2000/svg">
        <rect width="34" height="34" rx="17" class="background-color"/>
        <g clip-path="url(#clip0_143_584)">
            <path d="M17 9.384C12.7938 9.384 9.38403 12.7937 9.38403 17C9.38403 21.2063 12.7938 24.616 17 24.616C21.2063 24.616 24.616 21.2063 24.616 17C24.616 12.7937 21.2063 9.384 17 9.384ZM19.929 17.9766C19.929 17.9766 20.6026 18.6414 20.7684 18.95C20.7731 18.9564 20.7755 18.9627 20.7771 18.9659C20.8445 19.0793 20.8604 19.1674 20.8271 19.2332C20.7715 19.3427 20.5811 19.3967 20.5161 19.4014H19.3261C19.2436 19.4014 19.0706 19.38 18.8612 19.2356C18.7001 19.123 18.5415 18.9381 18.3868 18.758C18.1559 18.4899 17.956 18.2582 17.7545 18.2582C17.7289 18.2582 17.7035 18.2622 17.6791 18.2701C17.5268 18.3193 17.3316 18.5367 17.3316 19.1158C17.3316 19.2967 17.1888 19.4006 17.0881 19.4006H16.5431C16.3574 19.4006 15.3904 19.3356 14.5336 18.432C13.4848 17.3253 12.5407 15.1055 12.5328 15.0849C12.4733 14.9413 12.5962 14.8643 12.7303 14.8643H13.9322C14.0925 14.8643 14.1448 14.9619 14.1813 15.0484C14.2242 15.1492 14.3812 15.5498 14.6391 16.0004C15.0572 16.735 15.3134 17.0333 15.5189 17.0333C15.5574 17.0329 15.5952 17.0231 15.6292 17.0048C15.8973 16.8556 15.8473 15.8996 15.8354 15.7013C15.8354 15.664 15.8346 15.2737 15.6974 15.0865C15.599 14.9508 15.4316 14.8993 15.3301 14.8802C15.3712 14.8235 15.4253 14.7775 15.4879 14.7461C15.672 14.6541 16.0036 14.6406 16.3328 14.6406H16.5161C16.8731 14.6454 16.9651 14.6684 17.0944 14.7009C17.3562 14.7636 17.3618 14.9326 17.3388 15.5109C17.3316 15.6751 17.3245 15.8608 17.3245 16.0797C17.3245 16.1273 17.3221 16.1781 17.3221 16.2321C17.3142 16.5264 17.3047 16.8604 17.5125 16.9976C17.5396 17.0146 17.571 17.0237 17.603 17.0238C17.6752 17.0238 17.8925 17.0238 18.4812 16.0139C18.6627 15.6888 18.8205 15.351 18.9532 15.0032C18.9651 14.9826 19 14.9191 19.0413 14.8945C19.0717 14.879 19.1055 14.8711 19.1397 14.8715H20.5526C20.7065 14.8715 20.812 14.8945 20.8318 14.954C20.8667 15.0484 20.8255 15.3364 20.1805 16.2098L19.8925 16.5898C19.3078 17.3562 19.3078 17.3951 19.929 17.9766Z" fill="white"/>
        </g>
        <defs>
            <clipPath id="clip0_143_584">
                <rect width="15.8667" height="15.8667" fill="white" transform="translate(9.06665 9.06667)"/>
            </clipPath>
        </defs>
    </symbol>
    <symbol id="whatsup" width="34" height="34" viewBox="0 0 34 34" xmlns="http://www.w3.org/2000/svg">
        <rect width="34" height="34" rx="17" class="background-color"/>
        <g clip-path="url(#clip0_143_586)">
            <path d="M17 9.06667C12.6203 9.06667 9.06665 12.6203 9.06665 17C9.06665 18.7537 9.63431 20.369 10.5942 21.6843L9.58354 24.6749L12.7356 23.6919C13.9679 24.4764 15.4309 24.9333 17 24.9333C21.3797 24.9333 24.9333 21.3797 24.9333 17C24.9333 12.6203 21.3797 9.06667 17 9.06667ZM20.6321 21.2551C19.1922 21.832 17.4753 21.2736 15.597 19.8475C13.7187 18.4214 12.4818 16.4139 12.3987 14.9232C12.3157 13.4325 13.5294 12.6803 14.1894 12.6849C14.8494 12.6895 15.5739 14.7986 15.5832 15.1217C15.5924 15.4493 14.7755 16.0308 14.7432 16.3077C14.7109 16.5846 15.8554 17.9507 16.34 18.3199C16.82 18.6845 17.8122 19.386 18.3245 19.3214C18.8322 19.2522 19.1691 18.2322 19.4921 18.1676C19.8152 18.103 21.5781 18.9799 21.7535 19.206C21.9289 19.4368 21.9104 20.7474 20.6321 21.2551Z" fill="white"/>
        </g>
        <defs>
            <clipPath id="clip0_143_586">
                <rect width="15.8667" height="15.8667" fill="white" transform="translate(9.06665 9.06667)"/>
            </clipPath>
        </defs>
    </symbol>
    <symbol id="telegram" width="34" height="34" viewBox="0 0 34 34"
            xmlns="http://www.w3.org/2000/svg">
        <rect width="34" height="34" rx="17" class="background-color"/>
        <g clip-path="url(#clip0_143_585)">
            <path d="M17 9.06667C12.6208 9.06667 9.06665 12.6208 9.06665 17C9.06665 21.3792 12.6208 24.9333 17 24.9333C21.3792 24.9333 24.9333 21.3792 24.9333 17C24.9333 12.6208 21.3792 9.06667 17 9.06667ZM20.681 14.4613C20.562 15.7148 20.0464 18.7612 19.7846 20.1654C19.6735 20.7604 19.4514 20.9587 19.2451 20.9825C18.785 21.0222 18.4359 20.6811 17.9916 20.3875C17.2935 19.9274 16.8969 19.6418 16.2225 19.1975C15.4371 18.6819 15.9448 18.3963 16.397 17.9361C16.516 17.8171 18.547 15.9687 18.5866 15.8021C18.5922 15.7768 18.5914 15.7506 18.5845 15.7257C18.5776 15.7009 18.5647 15.678 18.547 15.6593C18.4994 15.6196 18.4359 15.6355 18.3804 15.6434C18.309 15.6593 17.1983 16.3971 15.0325 17.8568C14.7152 18.071 14.4296 18.1821 14.1757 18.1741C13.8901 18.1662 13.3506 18.0155 12.9461 17.8806C12.4463 17.7219 12.0575 17.6347 12.0893 17.357C12.1051 17.2142 12.3035 17.0714 12.6763 16.9207C14.9929 15.9131 16.5319 15.2467 17.3014 14.9294C19.5069 14.0091 19.9591 13.8505 20.2606 13.8505C20.324 13.8505 20.4748 13.8663 20.57 13.9457C20.6493 14.0091 20.6731 14.0964 20.681 14.1599C20.6731 14.2075 20.689 14.3503 20.681 14.4613Z" fill="white"/>
        </g>
        <defs>
            <clipPath id="clip0_143_585">
                <rect width="15.8667" height="15.8667" fill="white" transform="translate(9.06665 9.06667)"/>
            </clipPath>
        </defs>
    </symbol>
    <symbol id="logo" width="79" height="67" viewBox="0 0 79 67" fill="none" xmlns="http://www.w3.org/2000/svg">
        <g clip-path="url(#clip0_132_54)">
            <path fill-rule="evenodd" clip-rule="evenodd" d="M23.005 13.2954H21.665V33.5H25.2583V32.3144H22.8474V16.2254H22.9656L30.267 33.5H31.4297L38.7311 16.2254H38.8493V33.5H40.0318V13.2954H38.6917L30.9173 31.7242H30.7793L23.005 13.2954Z" fill="white"/>
            <path fill-rule="evenodd" clip-rule="evenodd" d="M54.9501 13.2947H53.8067L43.5179 13.2954V33.5H51.0853C52.3399 33.5 53.414 33.2665 54.3074 32.7996C55.2008 32.3326 55.884 31.6782 56.3569 30.8363C56.8364 29.9879 57.0762 28.9947 57.0762 27.8569C57.0762 26.7848 56.8364 25.8542 56.3569 25.065C55.8774 24.2757 55.1876 23.664 54.2877 23.23C53.3943 22.7893 52.3268 22.569 51.0853 22.569H44.7496V14.4398H53.8067V17.706H54.9501V13.2947ZM51.0853 32.3655H44.7496V23.7133H51.0853C52.5568 23.7133 53.7194 24.0981 54.5734 24.8676C55.4274 25.6306 55.8544 26.6139 55.8544 27.8175C55.8544 28.7185 55.6671 29.5111 55.2928 30.195C54.9183 30.8791 54.3731 31.4118 53.6571 31.7933C52.9476 32.1747 52.0904 32.3655 51.0853 32.3655Z" fill="white"/>
            <path fill-rule="evenodd" clip-rule="evenodd" d="M66.7622 50.7939C61.0261 59.8825 50.9023 65.9184 39.3705 65.9184C27.8388 65.9184 17.715 59.8825 11.9789 50.7939H10.709C16.5675 60.5064 27.2116 67 39.3705 67C51.5295 67 62.1736 60.5064 68.0321 50.7939H66.7622ZM7.13575 36.576C7.04057 35.5635 6.9919 34.5375 6.9919 33.5C6.9919 15.5958 21.4883 1.08158 39.3705 1.08158C57.2528 1.08158 71.7492 15.5958 71.7492 33.5C71.7492 34.5375 71.7005 35.5635 71.6053 36.576H72.6903C72.7824 35.563 72.8295 34.537 72.8295 33.5C72.8295 14.9984 57.8494 0 39.3705 0C20.8917 0 5.91165 14.9984 5.91165 33.5C5.91165 34.537 5.95871 35.563 6.05081 36.576H7.13575Z" fill="white"/>
            <path fill-rule="evenodd" clip-rule="evenodd" d="M78.741 51.2821H9.44385e-08L0 50.2006L78.741 50.2005V51.2821Z" fill="white"/>
            <path fill-rule="evenodd" clip-rule="evenodd" d="M27.8606 47.4045V46.6457C28.6009 46.6202 29.2402 46.5015 29.7784 46.2896C30.397 46.0418 30.8679 45.684 31.191 45.216C31.5209 44.7411 31.6859 44.1733 31.6859 43.5126C31.6859 42.845 31.5209 42.2773 31.191 41.8093C30.861 41.3412 30.3833 40.9834 29.7578 40.7356C29.223 40.5215 28.5907 40.3999 27.8606 40.3708V39.6414H26.9017V40.3708C26.1709 40.3999 25.535 40.5214 24.9943 40.7356C24.3687 40.9834 23.891 41.3412 23.5611 41.8093C23.2311 42.2773 23.0662 42.845 23.0662 43.5126C23.0662 44.1802 23.2311 44.748 23.5611 45.216C23.891 45.684 24.3687 46.0418 24.9943 46.2896C25.535 46.4978 26.1709 46.6161 26.9017 46.6443V47.4045H27.8606ZM25.5614 41.448C25.9444 41.3095 26.3911 41.2245 26.9017 41.1933V45.832C26.4028 45.8015 25.9629 45.7201 25.582 45.5876C25.0939 45.4087 24.7193 45.1472 24.4581 44.8031C24.1969 44.459 24.0663 44.0288 24.0663 43.5126C24.0663 42.9965 24.1934 42.5663 24.4477 42.2222C24.7021 41.8781 25.0733 41.62 25.5614 41.448ZM27.8606 45.8313V41.1898C28.3797 41.218 28.8299 41.3041 29.2112 41.448C29.6925 41.6269 30.0603 41.8884 30.3146 42.2325C30.5689 42.5766 30.6961 42.9999 30.6961 43.5024C30.6961 44.0116 30.5689 44.4418 30.3146 44.7928C30.0671 45.1369 29.7028 45.3984 29.2217 45.5773C28.8379 45.7145 28.3843 45.7992 27.8606 45.8313ZM46.8965 47.1361V39.9098H47.9173V43.0067H49.2456C49.285 42.6666 49.3647 42.3466 49.4845 42.0467C49.6701 41.5994 49.9278 41.2105 50.2579 40.8801C50.5878 40.5429 50.9761 40.2849 51.4229 40.1059C51.8697 39.9201 52.3543 39.8272 52.8767 39.8272C53.3992 39.8272 53.8837 39.9201 54.3305 40.1059C54.7842 40.2849 55.176 40.5429 55.506 40.8801C55.8358 41.2105 56.0902 41.5994 56.2689 42.0467C56.4545 42.4941 56.5473 42.9862 56.5473 43.5229C56.5473 44.0598 56.4545 44.5518 56.2689 44.9992C56.0902 45.4466 55.8358 45.8388 55.506 46.176C55.176 46.5064 54.7842 46.7645 54.3305 46.9503C53.8837 47.1292 53.3992 47.2187 52.8767 47.2187C52.3543 47.2187 51.8697 47.1292 51.4229 46.9503C50.9761 46.7645 50.5878 46.5064 50.2579 46.176C49.9278 45.8388 49.6701 45.4466 49.4845 44.9992C49.3526 44.6691 49.2693 44.3146 49.2349 43.9359H47.9173V47.1361H46.8965ZM52.8767 46.2896C53.2548 46.2896 53.6019 46.2242 53.9181 46.0935C54.2411 45.9559 54.5196 45.7631 54.7532 45.5153C54.9939 45.2676 55.1795 44.9751 55.3101 44.6378C55.4475 44.3007 55.5162 43.929 55.5162 43.5229C55.5162 43.1169 55.4475 42.7453 55.3101 42.408C55.1795 42.0708 54.9939 41.7783 54.7532 41.5305C54.5196 41.2828 54.2411 41.0935 53.9181 40.9628C53.6019 40.8251 53.2582 40.7563 52.887 40.7563C52.5159 40.7563 52.1687 40.8251 51.8457 40.9628C51.5295 41.0935 51.251 41.2828 51.0104 41.5305C50.7768 41.7783 50.5912 42.0708 50.4537 42.408C50.3231 42.7453 50.2579 43.1169 50.2579 43.5229C50.2579 43.929 50.3231 44.3007 50.4537 44.6378C50.5912 44.9751 50.7768 45.2676 51.0104 45.5153C51.251 45.7631 51.5295 45.9559 51.8457 46.0935C52.1687 46.2242 52.5124 46.2896 52.8767 46.2896ZM74.9158 47.2187C74.3659 47.2187 73.8538 47.1258 73.3795 46.94C72.9121 46.7542 72.5066 46.496 72.1628 46.1657C71.8191 45.8285 71.5511 45.4362 71.3587 44.9888C71.1661 44.5415 71.0699 44.0529 71.0699 43.5229C71.0699 42.993 71.1661 42.5043 71.3587 42.057C71.5511 41.6097 71.8191 41.2208 72.1628 40.8905C72.5066 40.5532 72.9121 40.2918 73.3795 40.1059C73.847 39.9201 74.359 39.8272 74.9158 39.8272C75.4657 39.8272 75.9709 39.9201 76.4314 40.1059C76.8989 40.2849 77.3044 40.5429 77.6481 40.8801C77.9987 41.2105 78.2667 41.5994 78.4523 42.0467C78.6449 42.4941 78.741 42.9862 78.741 43.5229C78.741 44.0598 78.6449 44.5518 78.4523 44.9992C78.2667 45.4466 77.9987 45.8388 77.6481 46.176C77.3044 46.5064 76.8989 46.7645 76.4314 46.9503C75.9709 47.1292 75.4657 47.2187 74.9158 47.2187ZM74.9158 46.2999C75.3144 46.2999 75.6823 46.2311 76.019 46.0935C76.3627 45.9559 76.6584 45.7631 76.9057 45.5153C77.1601 45.2607 77.356 44.9648 77.4935 44.6276C77.6379 44.2903 77.71 43.9221 77.71 43.5229C77.71 43.1238 77.6379 42.7556 77.4935 42.4184C77.356 42.0811 77.1601 41.7886 76.9057 41.5408C76.6584 41.2862 76.3627 41.0901 76.019 40.9524C75.6823 40.8148 75.3144 40.746 74.9158 40.746C74.5102 40.746 74.1357 40.8148 73.7919 40.9524C73.4551 41.0901 73.1596 41.2862 72.9052 41.5408C72.6509 41.7886 72.4516 42.0811 72.3072 42.4184C72.1697 42.7556 72.101 43.1238 72.101 43.5229C72.101 43.9221 72.1697 44.2903 72.3072 44.6276C72.4516 44.9648 72.6509 45.2607 72.9052 45.5153C73.1596 45.7631 73.4551 45.9559 73.7919 46.0935C74.1357 46.2311 74.5102 46.2999 74.9158 46.2999ZM64.0806 39.9098H61.4275C61.4198 39.9094 61.4118 39.9092 61.404 39.9092H60.1063C59.8346 39.9092 59.6142 40.1298 59.6142 40.402C59.6142 40.6741 59.8346 40.8948 60.1063 40.8948H61.2658V47.1361H62.2969V44.9476H64.0806C64.713 44.9476 65.2526 44.8478 65.6994 44.6482C66.1463 44.4418 66.4899 44.1527 66.7305 43.7811C66.9711 43.4025 67.0914 42.9517 67.0914 42.4287C67.0914 41.9056 66.9711 41.4549 66.7305 41.0763C66.4899 40.6978 66.1463 40.4087 65.6994 40.2091C65.2526 40.0096 64.713 39.9098 64.0806 39.9098ZM62.2969 44.0494H64.0497C64.7096 44.0494 65.2079 43.9084 65.5447 43.6262C65.8884 43.3441 66.0603 42.9449 66.0603 42.4287C66.0603 41.9125 65.8884 41.5134 65.5447 41.2311C65.2079 40.949 64.7096 40.8079 64.0497 40.8079H62.2969V44.0494ZM36.3132 47.1361V39.9098H41.7571V40.4174C41.7581 40.4301 41.7586 40.4431 41.7586 40.4561V41.4965C41.7586 41.7686 41.5382 41.9893 41.2664 41.9893C40.9947 41.9893 40.7742 41.7686 40.7742 41.4965V40.7873H37.3339V42.8519H39.5816C40.4409 42.8519 41.0939 43.0308 41.5406 43.3887C41.9875 43.7466 42.2108 44.2662 42.2108 44.9476C42.2108 45.6496 41.9668 46.1898 41.4788 46.5683C40.9976 46.9469 40.3067 47.1361 39.4063 47.1361H36.3132ZM37.3339 46.3205H39.3651C39.9631 46.3205 40.4134 46.207 40.7158 45.9799C41.0251 45.7528 41.1797 45.4156 41.1797 44.9683C41.1797 44.1011 40.5749 43.6674 39.3651 43.6674H37.3339V46.3205ZM14.7944 40.8948L11.9714 47.1361H13.0334L13.8263 45.3295H17.664L18.4568 47.1361H19.5394L16.2606 39.9098H15.3427C15.335 39.9094 15.3271 39.9092 15.3192 39.9092H14.0215C13.7498 39.9092 13.5294 40.1298 13.5294 40.402C13.5294 40.6741 13.7498 40.8948 14.0215 40.8948H14.7944ZM17.3014 44.5036L15.7451 40.9578L14.1888 44.5036H17.3014ZM0.00177765 39.9098V47.1361L1.79155 47.1356C2.06338 47.1356 2.28377 46.915 2.28377 46.6429C2.28377 46.3707 2.06338 46.1501 1.79165 46.1501H0.991562V41.8994L3.60024 46.2587H4.07451L6.68379 41.8665L6.69337 47.1361H7.68325L7.67296 39.9098H6.82744L3.85649 44.9858L0.847216 39.9098H0.00177765Z" fill="white"/>
        </g>
        <defs>
            <clipPath id="clip0_132_54">
                <rect width="79" height="67" fill="white"/>
            </clipPath>
        </defs>
    </symbol>
    <symbol id="search" width="20" height="20" viewBox="0 0 20 20" fill="none" xmlns="http://www.w3.org/2000/svg">
        <path d="M19 19L14.7 14.7M17 9C17 13.4183 13.4183 17 9 17C4.58172 17 1 13.4183 1 9C1 4.58172 4.58172 1 9 1C13.4183 1 17 4.58172 17 9Z" stroke="#212121" stroke-width="1.66667" stroke-linecap="round" stroke-linejoin="round"/>
    </symbol>
    <symbol id="pdf" width="41" height="22" viewBox="0 0 41 22" fill="none" xmlns="http://www.w3.org/2000/svg">
        <path d="M10.375 1V5C10.375 5.53043 10.5725 6.03914 10.9242 6.41421C11.2758 6.78929 11.7527 7 12.25 7H16M6.625 8H4.75M12.25 12H4.75M12.25 16H4.75M11.3125 1H2.875C2.37772 1 1.90081 1.21071 1.54917 1.58579C1.19754 1.96086 1 2.46957 1 3V19C1 19.5304 1.19754 20.0391 1.54917 20.4142C1.90081 20.7893 2.37772 21 2.875 21H14.125C14.6223 21 15.0992 20.7893 15.4508 20.4142C15.8025 20.0391 16 19.5304 16 19V6L11.3125 1Z" stroke="white" stroke-width="1.66667" stroke-linecap="round" stroke-linejoin="round"/>
        <path d="M22.78 4H23.96V11H22.78V4ZM23.48 5.04V4H24.89C25.3967 4 25.8367 4.09 26.21 4.27C26.59 4.44333 26.8833 4.69333 27.09 5.02C27.2967 5.34 27.4 5.72333 27.4 6.17C27.4 6.61667 27.2967 7.00333 27.09 7.33C26.8833 7.65667 26.59 7.91 26.21 8.09C25.8367 8.26333 25.3967 8.35 24.89 8.35H23.48V7.31H24.89C25.2967 7.31 25.6233 7.21333 25.87 7.02C26.1167 6.82667 26.24 6.54333 26.24 6.17C26.24 5.79667 26.1167 5.51667 25.87 5.33C25.6233 5.13667 25.2967 5.04 24.89 5.04H23.48ZM28.8613 4H30.0613V11H28.8613V4ZM31.1213 11H29.5913V9.89H31.0913C31.4379 9.89 31.7579 9.84 32.0513 9.74C32.3446 9.64 32.5979 9.49 32.8113 9.29C33.0313 9.09 33.2013 8.84 33.3213 8.54C33.4479 8.24 33.5113 7.89333 33.5113 7.5C33.5113 7.10667 33.4479 6.76 33.3213 6.46C33.2013 6.16 33.0313 5.91 32.8113 5.71C32.5979 5.51 32.3446 5.36 32.0513 5.26C31.7579 5.16 31.4379 5.11 31.0913 5.11H29.5913V4H31.1213C31.8346 4 32.4613 4.14667 33.0013 4.44C33.5413 4.72667 33.9613 5.13333 34.2613 5.66C34.5679 6.18 34.7213 6.79333 34.7213 7.5C34.7213 8.20667 34.5679 8.82333 34.2613 9.35C33.9613 9.87 33.5413 10.2767 33.0013 10.57C32.4613 10.8567 31.8346 11 31.1213 11ZM36.903 5.06V4H40.033V5.06H36.903ZM36.903 7.84V6.81H39.933V7.84H36.903ZM36.173 4H37.333V11H36.173V4Z" fill="white"/>
        <path d="M22.12 18L24.064 15.954C24.164 15.846 24.25 15.742 24.322 15.642C24.394 15.542 24.448 15.442 24.484 15.342C24.52 15.242 24.538 15.136 24.538 15.024C24.538 14.944 24.522 14.866 24.49 14.79C24.462 14.71 24.416 14.638 24.352 14.574C24.292 14.51 24.218 14.46 24.13 14.424C24.042 14.384 23.94 14.364 23.824 14.364C23.664 14.364 23.526 14.402 23.41 14.478C23.294 14.55 23.204 14.656 23.14 14.796C23.08 14.936 23.05 15.098 23.05 15.282H22.348C22.348 14.982 22.404 14.716 22.516 14.484C22.632 14.248 22.8 14.064 23.02 13.932C23.244 13.796 23.516 13.728 23.836 13.728C24.08 13.728 24.292 13.768 24.472 13.848C24.652 13.924 24.8 14.024 24.916 14.148C25.036 14.272 25.124 14.408 25.18 14.556C25.24 14.704 25.27 14.848 25.27 14.988C25.27 15.208 25.216 15.42 25.108 15.624C25.004 15.828 24.866 16.01 24.694 16.17L23.5 17.34H25.324V18H22.12ZM26.3051 17.694C26.3051 17.578 26.3451 17.48 26.4251 17.4C26.5091 17.316 26.6091 17.274 26.7251 17.274C26.8491 17.274 26.9511 17.316 27.0311 17.4C27.1111 17.48 27.1511 17.578 27.1511 17.694C27.1511 17.806 27.1111 17.904 27.0311 17.988C26.9511 18.072 26.8491 18.114 26.7251 18.114C26.6091 18.114 26.5091 18.072 26.4251 17.988C26.3451 17.904 26.3051 17.806 26.3051 17.694ZM28.8227 16.584C28.8227 16.756 28.8587 16.908 28.9307 17.04C29.0067 17.168 29.1087 17.27 29.2367 17.346C29.3647 17.418 29.5107 17.454 29.6747 17.454C29.8347 17.454 29.9787 17.418 30.1067 17.346C30.2347 17.27 30.3347 17.168 30.4067 17.04C30.4827 16.908 30.5207 16.756 30.5207 16.584C30.5207 16.412 30.4827 16.26 30.4067 16.128C30.3347 15.992 30.2347 15.888 30.1067 15.816C29.9787 15.74 29.8347 15.702 29.6747 15.702C29.5107 15.702 29.3647 15.74 29.2367 15.816C29.1087 15.888 29.0067 15.992 28.9307 16.128C28.8587 16.26 28.8227 16.412 28.8227 16.584ZM29.8187 13.806H30.7187L29.3867 15.456L29.2847 15.474C29.3767 15.37 29.4747 15.302 29.5787 15.27C29.6827 15.238 29.8067 15.222 29.9507 15.222C30.1147 15.222 30.2727 15.254 30.4247 15.318C30.5767 15.382 30.7107 15.476 30.8267 15.6C30.9467 15.72 31.0407 15.864 31.1087 16.032C31.1767 16.2 31.2107 16.384 31.2107 16.584C31.2107 16.892 31.1427 17.158 31.0067 17.382C30.8707 17.606 30.6867 17.778 30.4547 17.898C30.2227 18.014 29.9627 18.072 29.6747 18.072C29.3867 18.072 29.1267 18.014 28.8947 17.898C28.6627 17.778 28.4767 17.606 28.3367 17.382C28.2007 17.158 28.1327 16.892 28.1327 16.584C28.1327 16.388 28.1647 16.208 28.2287 16.044C28.2967 15.88 28.3827 15.73 28.4867 15.594L29.8187 13.806ZM32.1663 14.814C32.1663 14.598 32.2223 14.41 32.3343 14.25C32.4463 14.086 32.5963 13.958 32.7843 13.866C32.9763 13.774 33.1903 13.728 33.4263 13.728C33.6623 13.728 33.8743 13.774 34.0623 13.866C34.2543 13.958 34.4063 14.086 34.5183 14.25C34.6343 14.41 34.6923 14.598 34.6923 14.814C34.6923 14.99 34.6583 15.146 34.5903 15.282C34.5223 15.414 34.4303 15.526 34.3143 15.618C34.1983 15.71 34.0643 15.78 33.9123 15.828C33.7603 15.876 33.5983 15.9 33.4263 15.9C33.2543 15.9 33.0923 15.876 32.9403 15.828C32.7883 15.78 32.6543 15.71 32.5383 15.618C32.4223 15.526 32.3303 15.414 32.2623 15.282C32.1983 15.146 32.1663 14.99 32.1663 14.814ZM32.8383 14.886C32.8383 15.006 32.8643 15.11 32.9163 15.198C32.9723 15.286 33.0443 15.356 33.1323 15.408C33.2203 15.456 33.3183 15.48 33.4263 15.48C33.5343 15.48 33.6323 15.456 33.7203 15.408C33.8123 15.356 33.8843 15.286 33.9363 15.198C33.9883 15.11 34.0143 15.006 34.0143 14.886C34.0143 14.77 33.9883 14.666 33.9363 14.574C33.8883 14.482 33.8203 14.412 33.7323 14.364C33.6443 14.312 33.5423 14.286 33.4263 14.286C33.3143 14.286 33.2123 14.312 33.1203 14.364C33.0323 14.412 32.9623 14.482 32.9103 14.574C32.8623 14.666 32.8383 14.77 32.8383 14.886ZM32.0163 16.86C32.0163 16.656 32.0563 16.478 32.1363 16.326C32.2163 16.174 32.3243 16.048 32.4603 15.948C32.5963 15.844 32.7483 15.768 32.9163 15.72C33.0843 15.672 33.2543 15.648 33.4263 15.648C33.5983 15.648 33.7683 15.672 33.9363 15.72C34.1043 15.768 34.2563 15.844 34.3923 15.948C34.5283 16.048 34.6363 16.174 34.7163 16.326C34.8003 16.478 34.8423 16.656 34.8423 16.86C34.8423 17.036 34.8043 17.198 34.7283 17.346C34.6563 17.49 34.5543 17.618 34.4223 17.73C34.2943 17.838 34.1443 17.922 33.9723 17.982C33.8043 18.042 33.6223 18.072 33.4263 18.072C33.2303 18.072 33.0463 18.042 32.8743 17.982C32.7063 17.922 32.5563 17.838 32.4243 17.73C32.2963 17.618 32.1963 17.49 32.1243 17.346C32.0523 17.198 32.0163 17.036 32.0163 16.86ZM32.7123 16.764C32.7123 16.916 32.7443 17.046 32.8083 17.154C32.8763 17.258 32.9643 17.338 33.0723 17.394C33.1843 17.45 33.3023 17.478 33.4263 17.478C33.5503 17.478 33.6663 17.45 33.7743 17.394C33.8863 17.338 33.9763 17.258 34.0443 17.154C34.1123 17.046 34.1463 16.916 34.1463 16.764C34.1463 16.632 34.1123 16.512 34.0443 16.404C33.9763 16.296 33.8863 16.212 33.7743 16.152C33.6663 16.088 33.5503 16.056 33.4263 16.056C33.3023 16.056 33.1843 16.088 33.0723 16.152C32.9643 16.212 32.8763 16.296 32.8083 16.404C32.7443 16.512 32.7123 16.632 32.7123 16.764ZM39.7031 16.248V18H39.0551V16.32C39.0551 16.112 39.0171 15.958 38.9411 15.858C38.8691 15.754 38.7531 15.702 38.5931 15.702C38.4851 15.702 38.3891 15.726 38.3051 15.774C38.2251 15.822 38.1611 15.892 38.1131 15.984C38.0691 16.076 38.0471 16.188 38.0471 16.32V18H37.3991V16.32C37.3991 16.112 37.3611 15.958 37.2851 15.858C37.2131 15.754 37.0971 15.702 36.9371 15.702C36.8251 15.702 36.7271 15.726 36.6431 15.774C36.5631 15.822 36.5011 15.892 36.4571 15.984C36.4131 16.076 36.3911 16.188 36.3911 16.32V18H35.7551V15.24H36.3911V15.642C36.4711 15.49 36.5751 15.376 36.7031 15.3C36.8351 15.22 36.9891 15.18 37.1651 15.18C37.3691 15.18 37.5371 15.222 37.6691 15.306C37.8051 15.39 37.9031 15.512 37.9631 15.672C38.0591 15.512 38.1791 15.39 38.3231 15.306C38.4711 15.222 38.6391 15.18 38.8271 15.18C39.0231 15.18 39.1851 15.222 39.3131 15.306C39.4451 15.386 39.5431 15.506 39.6071 15.666C39.6711 15.826 39.7031 16.02 39.7031 16.248Z" fill="white"/>
    </symbol>
    <symbol id="catalog" width="22" height="22" viewBox="0 0 22 22" fill="none" xmlns="http://www.w3.org/2000/svg">
        <path d="M7.66667 1H2.11111C1.49746 1 1 1.49746 1 2.11111V7.66667C1 8.28032 1.49746 8.77778 2.11111 8.77778H7.66667C8.28032 8.77778 8.77778 8.28032 8.77778 7.66667V2.11111C8.77778 1.49746 8.28032 1 7.66667 1Z" stroke-width="1.66667" stroke-linecap="round" stroke-linejoin="round"/>
        <path d="M19.8889 1H14.3333C13.7197 1 13.2222 1.49746 13.2222 2.11111V7.66667C13.2222 8.28032 13.7197 8.77778 14.3333 8.77778H19.8889C20.5025 8.77778 21 8.28032 21 7.66667V2.11111C21 1.49746 20.5025 1 19.8889 1Z" stroke-width="1.66667" stroke-linecap="round" stroke-linejoin="round"/>
        <path d="M19.8889 13.2222H14.3333C13.7197 13.2222 13.2222 13.7197 13.2222 14.3333V19.8889C13.2222 20.5025 13.7197 21 14.3333 21H19.8889C20.5025 21 21 20.5025 21 19.8889V14.3333C21 13.7197 20.5025 13.2222 19.8889 13.2222Z" stroke-width="1.66667" stroke-linecap="round" stroke-linejoin="round"/>
        <path d="M7.66667 13.2222H2.11111C1.49746 13.2222 1 13.7197 1 14.3333V19.8889C1 20.5025 1.49746 21 2.11111 21H7.66667C8.28032 21 8.77778 20.5025 8.77778 19.8889V14.3333C8.77778 13.7197 8.28032 13.2222 7.66667 13.2222Z" stroke-width="1.66667" stroke-linecap="round" stroke-linejoin="round"/>
    </symbol>
    <symbol id="banner-logo" width="1357" height="200" viewBox="0 0 1357 200" fill="none"
            xmlns="http://www.w3.org/2000/svg">
        <path fill-rule="evenodd" clip-rule="evenodd" d="M1356.99 199.862H1.62751e-06L0 181.294H1356.99V199.862Z" fill="white"/>
        <path fill-rule="evenodd" clip-rule="evenodd" d="M480.147 133.281V120.254C492.905 119.816 503.923 117.778 513.197 114.14C523.859 109.887 531.973 103.743 537.541 95.7086C543.227 87.556 546.07 77.8087 546.07 66.4664C546.07 55.0057 543.227 45.2581 537.541 37.2238C531.855 29.1894 523.622 23.0458 512.843 18.7921C503.626 15.1153 492.728 13.0277 480.147 12.5291V0.00613403H463.621V12.5291C451.027 13.0274 440.069 15.1149 430.75 18.7921C419.969 23.0458 411.737 29.1894 406.051 37.2238C400.365 45.2581 397.521 55.0057 397.521 66.4664C397.521 77.9273 400.365 87.6747 406.051 95.7086C411.737 103.743 419.969 109.887 430.75 114.14C440.069 117.715 451.027 119.745 463.621 120.229V133.281H480.147ZM440.522 31.0208C447.123 28.6436 454.822 27.1861 463.621 26.6486V106.284C455.024 105.761 447.443 104.362 440.878 102.089C432.466 99.0174 426.011 94.5272 421.51 88.6197C417.008 82.7122 414.757 75.3279 414.757 66.4664C414.757 57.6051 416.949 50.2205 421.331 44.313C425.714 38.4055 432.112 33.9746 440.522 31.0208ZM480.147 106.274V26.59C489.094 27.074 496.852 28.551 503.424 31.0208C511.717 34.0929 518.055 38.5826 522.438 44.4902C526.821 50.3977 529.013 57.664 529.013 66.2892C529.013 75.0325 526.821 82.4168 522.438 88.4421C518.173 94.3504 511.895 98.8399 503.603 101.911C496.99 104.267 489.171 105.721 480.147 106.274ZM808.205 128.673V4.61415H825.798V57.7823H848.684C849.37 51.9431 850.743 46.4489 852.803 41.2999C856.004 33.6203 860.442 26.9448 866.133 21.2733C871.816 15.484 878.514 11.0532 886.209 7.98156C893.912 4.7913 902.261 3.19636 911.265 3.19636C920.269 3.19636 928.619 4.7913 936.322 7.98156C944.137 11.0532 950.89 15.484 956.573 21.2733C962.265 26.9448 966.647 33.6203 969.728 41.2999C972.921 48.9799 974.525 57.428 974.525 66.6436C974.525 75.8589 972.921 84.3069 969.728 91.9866C966.647 99.6671 962.265 106.401 956.573 112.191C950.89 117.862 944.137 122.293 936.322 125.483C928.619 128.555 920.269 130.091 911.265 130.091C902.261 130.091 893.912 128.555 886.209 125.483C878.514 122.293 871.816 117.862 866.133 112.191C860.442 106.401 856.004 99.6671 852.803 91.9866C850.536 86.3204 849.099 80.2354 848.5 73.7324H825.798V128.673H808.205ZM911.265 114.14C917.779 114.14 923.766 113.018 929.21 110.773C934.781 108.41 939.579 105.102 943.602 100.849C947.753 96.5948 950.946 91.5734 953.197 85.7838C955.567 79.995 956.757 73.6145 956.757 66.6436C956.757 59.6726 955.567 53.2925 953.197 47.5029C950.946 41.7136 947.753 36.6923 943.602 32.4386C939.579 28.1853 934.781 24.9361 929.21 22.6911C923.766 20.3282 917.843 19.1468 911.441 19.1468C905.047 19.1468 899.06 20.3282 893.497 22.6911C888.045 24.9361 883.247 28.1853 879.104 32.4386C875.073 36.6923 871.88 41.7136 869.51 47.5029C867.259 53.2925 866.133 59.6726 866.133 66.6436C866.133 73.6145 867.259 79.995 869.51 85.7838C871.88 91.5734 875.073 96.5948 879.104 100.849C883.247 105.102 888.045 108.41 893.497 110.773C899.06 113.018 904.983 114.14 911.265 114.14ZM1291.07 130.091C1281.6 130.091 1272.78 128.496 1264.6 125.306C1256.55 122.115 1249.56 117.685 1243.63 112.014C1237.71 106.224 1233.09 99.4896 1229.78 91.8099C1226.46 84.1302 1224.8 75.7411 1224.8 66.6436C1224.8 57.5458 1226.46 49.1571 1229.78 41.4774C1233.09 33.7974 1237.71 27.1219 1243.63 21.4505C1249.56 15.6612 1256.55 11.1714 1264.6 7.98156C1272.66 4.7913 1281.48 3.19636 1291.07 3.19636C1300.56 3.19636 1309.26 4.7913 1317.2 7.98156C1325.25 11.0532 1332.24 15.484 1338.16 21.2733C1344.2 26.9448 1348.83 33.6203 1352.03 41.2999C1355.34 48.9799 1357 57.428 1357 66.6436C1357 75.8589 1355.34 84.3069 1352.03 91.9866C1348.83 99.6671 1344.2 106.401 1338.16 112.191C1332.24 117.862 1325.25 122.293 1317.2 125.483C1309.26 128.555 1300.56 130.091 1291.07 130.091ZM1291.07 114.317C1297.95 114.317 1304.28 113.136 1310.09 110.773C1316.01 108.41 1321.11 105.102 1325.37 100.849C1329.76 96.4769 1333.13 91.3967 1335.5 85.607C1337.99 79.8174 1339.23 73.4963 1339.23 66.6436C1339.23 59.7909 1337.99 53.4697 1335.5 47.6804C1333.13 41.8907 1329.76 36.8694 1325.37 32.6158C1321.11 28.2442 1316.01 24.8772 1310.09 22.5139C1304.28 20.1509 1297.95 18.9693 1291.07 18.9693C1284.09 18.9693 1277.63 20.1509 1271.71 22.5139C1265.91 24.8772 1260.81 28.2442 1256.43 32.6158C1252.05 36.8694 1248.61 41.8907 1246.13 47.6804C1243.75 53.4697 1242.56 59.7909 1242.56 66.6436C1242.56 73.4963 1243.75 79.8174 1246.13 85.607C1248.61 91.3967 1252.05 96.4769 1256.43 100.849C1260.81 105.102 1265.91 108.41 1271.71 110.773C1277.63 113.136 1284.09 114.317 1291.07 114.317ZM1104.35 4.61415H1058.63C1058.49 4.6077 1058.36 4.60468 1058.22 4.60468H1035.85C1031.18 4.60468 1027.38 8.39222 1027.38 13.0645C1027.38 17.7367 1031.18 21.5241 1035.85 21.5241H1055.84V128.673H1073.61V91.1013H1104.35C1115.25 91.1013 1124.55 89.388 1132.25 85.9613C1139.94 82.4168 1145.87 77.4544 1150.02 71.0744C1154.16 64.5761 1156.24 56.8371 1156.24 47.8576C1156.24 38.8781 1154.16 31.1391 1150.02 24.6408C1145.87 18.1424 1139.94 13.1801 1132.25 9.75364C1124.55 6.32732 1115.25 4.61415 1104.35 4.61415ZM1073.61 75.6822H1103.82C1115.19 75.6822 1123.78 73.2602 1129.58 68.4161C1135.51 63.572 1138.47 56.7188 1138.47 47.8576C1138.47 38.9963 1135.51 32.1436 1129.58 27.2994C1123.78 22.455 1115.19 20.0331 1103.82 20.0331H1073.61V75.6822ZM625.815 128.673V4.61415H719.634V13.3281C719.651 13.5472 719.66 13.7686 719.66 13.9922V31.8546C719.66 36.5268 715.862 40.3143 711.177 40.3143C706.494 40.3143 702.696 36.5268 702.696 31.8546V19.6783H643.406V55.1239H682.142C696.95 55.1239 708.203 58.1959 715.903 64.3395C723.603 70.4836 727.453 79.4042 727.453 91.1013C727.453 103.153 723.247 112.428 714.838 118.926C706.544 125.424 694.639 128.673 679.121 128.673H625.815ZM643.406 114.672H678.411C688.717 114.672 696.475 112.723 701.689 108.824C707.018 104.925 709.684 99.1353 709.684 91.4556C709.684 76.5683 699.26 69.1247 678.411 69.1247H643.406V114.672ZM254.968 21.5241L206.318 128.673H224.621L238.285 97.6584H304.421L318.086 128.673H336.743L280.237 4.61415H264.419C264.286 4.6077 264.15 4.60468 264.015 4.60468H241.65C236.967 4.60468 233.169 8.39222 233.169 13.0645C233.169 17.7367 236.967 21.5241 241.65 21.5241H254.968ZM298.174 83.4805L271.354 22.6049L244.533 83.4805H298.174ZM0.0389709 4.61415V128.673L30.8832 128.665C35.5677 128.665 39.3658 124.877 39.3658 120.205C39.3658 115.533 35.5677 111.746 30.8848 111.746H17.0966V38.7707L62.0533 113.609H70.2268L115.194 38.2075L115.359 128.673H132.418L132.241 4.61415H117.669L66.4696 91.7565L14.6089 4.61415H0.0389709Z" fill="white"/>
    </symbol>
    <symbol id="arrow" width="17" height="17" viewBox="0 0 17 17" fill="none" xmlns="http://www.w3.org/2000/svg">
        <path d="M1.49816 15.0849L15.0849 1.49815M15.0849 1.49815H1.49816M15.0849 1.49815V15.0849" stroke="white" stroke-width="2" stroke-linecap="round" stroke-linejoin="round"/>
    </symbol>
    <symbol id="mark" width="41" height="41" viewBox="0 0 41 41" fill="none" xmlns="http://www.w3.org/2000/svg">
        <circle cx="20.5" cy="20.5" r="20.5" fill="#49634A"/>
        <path d="M20.0715 25.3194C19.8785 25.3194 19.6532 25.255 19.4923 25.0941L15.6953 21.2971C15.3735 20.9753 15.3735 20.4605 15.6953 20.1709C16.017 19.8491 16.5319 19.8491 16.8215 20.1709L20.0393 23.3887L28.6953 14.7328C29.0171 14.411 29.5319 14.411 29.8215 14.7328C30.1433 15.0546 30.1433 15.5693 29.8215 15.859L20.6185 25.0619C20.6185 25.0619 20.2646 25.2872 20.0393 25.2872L20.0715 25.3194Z" fill="white"/>
        <path d="M20.2327 31.4653C14.6015 31.4653 10 26.8638 10 21.2327C10 15.6015 14.6015 11 20.2327 11C22.1633 11 24.0619 11.547 25.703 12.5767C26.0891 12.8019 26.1856 13.3169 25.9604 13.6708C25.7351 14.057 25.2203 14.1536 24.8663 13.9283C23.4827 13.0595 21.906 12.6089 20.2649 12.6089C15.5025 12.6089 11.641 16.4703 11.641 21.2327C11.641 25.995 15.5025 29.8564 20.2649 29.8564C23.8688 29.8564 27.151 27.5719 28.3737 24.1932C28.5346 23.7749 28.9852 23.5496 29.4035 23.7104C29.8218 23.8713 30.047 24.3219 29.8861 24.7402C28.4059 28.7624 24.5446 31.4653 20.2649 31.4653H20.2327Z" fill="white"/>
    </symbol>
    <symbol id="arrow-right" width="33" height="33" viewBox="0 0 33 33" fill="none" xmlns="http://www.w3.org/2000/svg">
        <path d="M6.8623 16.4696H26.0768M26.0768 16.4696L16.4696 6.8623M26.0768 16.4696L16.4696 26.0768" stroke="black" stroke-width="2" stroke-linecap="round" stroke-linejoin="round"/>
    </symbol>

</svg>